<svg id="Layer_1" viewBox="0 0 24 24" xmlns="http://www.w3.org/2000/svg" data-name="Layer 1"><path d="m24 22c0 1.105-.895 2-2 2-.738 0-1.376-.405-1.723-1h-1.277c-1.654 0-3-1.346-3-3v-1c0-.553.448-1 1-1s1 .447 1 1v1c0 .552.449 1 1 1h1.277c.346-.595.984-1 1.723-1 1.105 0 2 .895 2 2zm-17-4c-.552 0-1 .447-1 1v1c0 .552-.449 1-1 1h-1.277c-.346-.595-.984-1-1.723-1-1.105 0-2 .895-2 2s.895 2 2 2c.738 0 1.376-.405 1.723-1h1.277c1.654 0 3-1.346 3-3v-1c0-.553-.448-1-1-1zm6-1.121v3.398c.595.346 1 .984 1 1.723 0 1.105-.895 2-2 2s-2-.895-2-2c0-.738.405-1.376 1-1.723v-3.398c-.896-.205-1.685-.678-2.289-1.331l-.977.563c-.47.274-1.089.116-1.366-.367-.275-.479-.111-1.09.368-1.365l.983-.566c-.129-.418-.218-.853-.218-1.313s.09-.895.218-1.313l-.983-.567c-.479-.275-.643-.887-.367-1.366s.885-.644 1.366-.367l.977.563c.605-.652 1.393-1.126 2.289-1.33v-1.121c0-.552.448-1 1-1s1 .448 1 1v1.121c.896.205 1.685.678 2.289 1.33l.977-.563c.48-.276 1.09-.111 1.366.367.276.479.112 1.09-.367 1.366l-.983.567c.129.418.218.853.218 1.313s-.089.895-.218 1.313l.983.566c.479.275.643.887.368 1.365-.277.483-.896.641-1.366.367l-.977-.563c-.605.652-1.393 1.126-2.289 1.331zm-1-1.879c1.378 0 2.5-1.121 2.5-2.5s-1.122-2.5-2.5-2.5-2.5 1.122-2.5 2.5 1.122 2.5 2.5 2.5zm-9.5 3.83c.158.092.33.135.5.135.345 0 .681-.179.867-.499.276-.479.113-1.09-.365-1.366-.925-.535-1.5-1.531-1.5-2.6 0-.984.418-1.928 1.146-2.59.786-.715 1.155-1.773.963-2.762-.138-.712-.146-1.446-.024-2.181.403-2.422 2.365-4.421 4.771-4.862 2.745-.503 5.385.835 6.567 3.329.414.872 1.2 1.482 2.158 1.673 2.56.511 4.417 2.779 4.417 5.394 0 1.42-.607 2.778-1.667 3.727-.412.368-.446 1-.078 1.412.368.411 1 .446 1.412.078 1.482-1.327 2.333-3.229 2.333-5.217 0-3.565-2.534-6.658-6.026-7.354-.332-.066-.603-.274-.742-.569-1.551-3.272-5.143-5.098-8.735-4.441-3.271.599-5.837 3.212-6.384 6.502-.162.97-.15 1.942.033 2.89.06.308-.072.654-.345.901-1.145 1.041-1.801 2.524-1.801 4.07 0 1.779.958 3.439 2.5 4.33z"/></svg>