<svg id="Layer_1" enable-background="new 0 0 24 24" viewBox="0 0 24 24" xmlns="http://www.w3.org/2000/svg"><path d="m5 12.8c0 .7.6 1.2 1.3 1 .6-.2 1.2-.5 1.7-.8.9.6 1.9 1.1 3 1.1.6 0 1.1-.1 1.5-.2 1.5-.5 2.5-1.9 2.5-3.4 0-1-.9-1.7-1.9-1.5-.7.2-1.1.9-1.1 1.6 0 .4.1.8.2 1.1-.6.3-1.1.3-1.2.3-.5 0-1-.2-1.5-.4.9-1.1 1.5-2.5 1.5-3.6 0-1.6-1.3-3-3-3s-3 1.4-3 3c0 1.1.6 2.4 1.5 3.5-.2.1-.5.3-.7.3-.5.2-.8.6-.8 1zm3-5.8c.6 0 1 .4 1 1s-.4 1.5-1 2.2c-.6-.7-1-1.6-1-2.2 0-.5.5-1 1-1zm3 10c0 .6-.4 1-1 1h-8v1c0 1.7 1.3 3 3 3h3c.6 0 1 .4 1 1s-.4 1-1 1h-3c-2.8 0-5-2.2-5-5v-14c0-2.8 2.2-5 5-5h6c2.8 0 5 2.2 5 5v1c0 .6-.4 1-1 1s-1-.4-1-1v-1c0-1.7-1.3-3-3-3h-6c-1.7 0-3 1.3-3 3v11h8c.6 0 1 .4 1 1zm12.1-5.1c-1.1-1.1-3.1-1.1-4.2 0l-6.7 6.7c-.8.8-1.2 1.8-1.2 2.8v1.6c0 .6.4 1 1 1h1.6c1.1 0 2.1-.4 2.8-1.2l6.7-6.7c1.2-1.1 1.2-3.1 0-4.2zm-1.4 2.8-6.7 6.7c-.4.4-.9.6-1.4.6h-.6v-.6c0-.5.2-1 .6-1.4l6.7-6.7c.4-.4 1-.4 1.4 0s.4 1 0 1.4z"/></svg>