<svg id="Layer_1" viewBox="0 0 24 24" xmlns="http://www.w3.org/2000/svg" data-name="Layer 1"><path d="m24 12c0 6.617-5.383 12-12 12-3.476 0-6.744-1.542-9-4.104v2.104h-2v-4c0-1.103.897-2 2-2h4v2h-2.991c1.877 2.49 4.837 4 7.991 4 5.514 0 10-4.486 10-10zm-12-10c3.154 0 6.115 1.51 7.991 4h-2.991v2h4c1.103 0 2-.897 2-2v-4h-2v2.104c-2.256-2.562-5.524-4.104-9-4.104-6.617 0-12 5.383-12 12h2c0-5.514 4.486-10 10-10zm3.5 6.5c1.93 0 3.5 1.57 3.5 3.5s-1.57 3.5-3.5 3.5c-1.386 0-2.685-1.085-3.5-1.949-.815.864-2.114 1.949-3.5 1.949-1.93 0-3.5-1.57-3.5-3.5s1.57-3.5 3.5-3.5c1.386 0 2.685 1.085 3.5 1.949.815-.864 2.114-1.949 3.5-1.949zm-4.795 3.5c-.67-.736-1.591-1.5-2.205-1.5-.827 0-1.5.673-1.5 1.5s.673 1.5 1.5 1.5c.614 0 1.535-.764 2.205-1.5zm4.795-1.5c-.614 0-1.535.764-2.205 1.5.67.736 1.591 1.5 2.205 1.5.827 0 1.5-.673 1.5-1.5s-.673-1.5-1.5-1.5z"/></svg>