<svg id="Layer_1" viewBox="0 0 24 24" xmlns="http://www.w3.org/2000/svg" data-name="Layer 1"><path d="m8.722 18.368c0 .346-.28.627-.626.628l-1.468.003c-.347 0-.629-.28-.629-.627l-.005-4.744c0-.347.281-.628.628-.628s.627.28.627.626c.001 1.249.003 2.869.004 4.118.71-.001.592-.003.837-.004.348-.002.631.28.631.628zm4.757-3.368.008 2v.015c0 1.094-.902 1.985-2.012 1.985-1.086 0-1.967-.881-1.967-1.967l-.008-2.066c0-1.086.881-1.967 1.967-1.967 1.109 0 2.012.891 2.012 1.985zm-1.242 2.015-.008-2.015v-.015c0-.394-.342-.726-.75-.733-.402.007-.725.333-.724.736 0 .095.008 1.886.008 2.024 0 .403.322.729.724.736.408-.007.75-.338.75-.733zm5.62-1.013-.766.002c-.345.001-.625.281-.625.627 0 .349.284.631.633.627h.085c-.106.279-.378.485-.698.491-.402-.007-.725-.333-.724-.736 0-.138-.008-1.929-.008-2.024 0-.403.322-.729.724-.736.289.005.544.172.669.409.106.202.32.324.548.324.473 0 .776-.504.553-.921-.337-.632-1.009-1.064-1.782-1.064-1.086 0-1.967.881-1.967 1.967l.008 2.066c0 1.086.881 1.967 1.967 1.967 1.11 0 2.012-.891 2.012-1.985v-.389c-.003-.346-.284-.625-.63-.624zm4.143-5.516v8.515c0 2.757-2.243 5-5 5h-10c-2.757 0-5-2.243-5-5v-14.001c0-2.757 2.243-5 5-5h4.515c1.87 0 3.627.728 4.95 2.05l3.485 3.485c1.322 1.322 2.05 3.08 2.05 4.95zm-6.95-7.022c-.315-.315-.674-.564-1.05-.781v4.317c0 .551.449 1 1 1h4.317c-.217-.376-.466-.735-.781-1.05l-3.485-3.485zm4.95 7.021c0-.165-.032-.323-.047-.485h-4.953c-1.654 0-3-1.346-3-3v-4.953c-.162-.016-.32-.047-.485-.047h-4.515c-1.654 0-3 1.346-3 3v14c0 1.654 1.346 3 3 3h10c1.654 0 3-1.346 3-3z"/></svg>