<svg id="Layer_1" viewBox="0 0 24 24" xmlns="http://www.w3.org/2000/svg" data-name="Layer 1"><path d="m16.293 4.245c-.391-.391-.391-1.024 0-1.414l2.212-2.211c.798-.799 2.192-.799 2.991 0l2.211 2.211c.391.39.391 1.023 0 1.414-.195.195-.451.293-.707.293s-.512-.098-.707-.293l-2.212-2.211c-.04-.045-.115-.055-.162 0l-2.212 2.211c-.391.391-1.023.391-1.414 0zm6 2.548-2.212 2.212c-.045.045-.117.045-.162 0l-2.212-2.212c-.391-.391-1.023-.391-1.414 0s-.391 1.023 0 1.414l2.212 2.212c.412.412.954.619 1.495.619s1.083-.207 1.495-.619l2.212-2.212c.391-.391.391-1.023 0-1.414s-1.023-.391-1.414 0zm-7.293 4.207v5.5c0 4.136-3.364 7.5-7.5 7.5s-7.5-3.364-7.5-7.5v-5.5c0-3.309 2.691-6 6-6h.5v-4c0-.552.448-1 1-1s1 .448 1 1v4h.5c3.309 0 6 2.691 6 6zm-6.5-4v5h4.5v-1c0-2.206-1.794-4-4-4zm-6.5 4v1h4.5v-5h-.5c-2.206 0-4 1.794-4 4zm11 5.5v-2.5h-11v2.5c0 3.032 2.467 5.5 5.5 5.5s5.5-2.468 5.5-5.5z"/></svg>