<svg id="Layer_1" viewBox="0 0 24 24" xmlns="http://www.w3.org/2000/svg" data-name="Layer 1"><path d="m23.121.879c-1.17-1.17-3.072-1.17-4.242 0l-6.707 6.707c-.756.755-1.172 1.76-1.172 2.828v1.586c0 .552.447 1 1 1h1.586c1.068 0 2.073-.417 2.828-1.172l6.707-6.707c1.164-1.117 1.164-3.126 0-4.243zm-1.414 2.828-6.707 6.707c-.378.378-.88.586-1.414.586h-.586v-.586c0-.526.214-1.042.586-1.414l6.707-6.707c.391-.39 1.023-.39 1.414 0 .388.372.388 1.042 0 1.414zm-9.707 14.293c-.553 0-1-.447-1-1s.447-1 1-1h3c.553 0 1 .447 1 1s-.447 1-1 1zm8-4v5c0 2.757-2.243 5-5 5h-10c-2.757 0-5-2.243-5-5v-14c0-2.757 2.243-5 5-5h9c.553 0 1 .448 1 1s-.447 1-1 1h-9c-1.654 0-3 1.346-3 3v14c0 1.654 1.346 3 3 3h10c1.654 0 3-1.346 3-3v-5c0-.553.447-1 1-1s1 .447 1 1zm-10.833-2.333-1.687 1.687c-.431.431-.995.648-1.561.648-.533 0-1.066-.193-1.491-.582l-.669-.579c-.417-.362-.462-.994-.101-1.411.363-.419.994-.461 1.411-.101l.689.598c.103.093.228.092.307.013l1.687-1.687c.391-.391 1.023-.391 1.414 0s.391 1.023 0 1.414zm0-4.96-1.687 1.687c-.431.431-.995.648-1.561.648-.533 0-1.066-.193-1.491-.582l-.669-.579c-.417-.362-.462-.994-.101-1.411.363-.418.994-.461 1.411-.101l.689.598c.103.094.228.092.307.013l1.687-1.687c.391-.391 1.023-.391 1.414 0s.391 1.023 0 1.414zm0 8.546c.391.391.391 1.023 0 1.414l-1.687 1.687c-.431.431-.995.648-1.561.648-.533 0-1.066-.193-1.491-.582l-.669-.579c-.417-.362-.462-.993-.101-1.411.363-.417.994-.462 1.411-.101l.689.598c.103.093.228.092.307.013l1.687-1.687c.391-.391 1.023-.391 1.414 0z"/></svg>