<svg id="Layer_1" viewBox="0 0 24 24" xmlns="http://www.w3.org/2000/svg" data-name="Layer 1"><path d="m0 14.25c0-1.627.827-3.125 2.181-3.996-.12-.574-.181-1.163-.181-1.754 0-4.687 3.813-8.5 8.5-8.5 3.421 0 6.453 2 7.802 5.122 3.269.617 5.698 3.523 5.698 6.878 0 2.791-1.647 5.195-4.016 6.316.004-.106.016-.21.016-.316 0-.267-.014-.53-.04-.791 1.813-1.032 3.04-2.977 3.04-5.209 0-2.958-2.204-5.51-5.126-5.937l-.287-.042c-1.07-3.015-3.881-5.03-7.087-5.022-4.136 0-7.5 3.364-7.5 7.5-.006.766.129 1.523.333 2.254l-.347.185c-1.226.655-1.987 1.923-1.987 3.311 0 1.812 1.293 3.327 3.004 3.674-.013.338.019.676.055 1.006-2.29-.338-4.058-2.298-4.058-4.68zm14-3.25c0 1.103-.897 2-2 2s-2-.897-2-2 .897-2 2-2 2 .897 2 2zm-1 0c0-.551-.449-1-1-1s-1 .449-1 1 .449 1 1 1 1-.449 1-1zm3.412 4.334-1.516-.892c-.408.34-.881.606-1.396.786v1.771h-3v-1.771c-.515-.18-.988-.446-1.396-.786l-1.516.892-1.521-2.586 1.527-.897c-.064-.299-.094-.576-.094-.85s.03-.551.094-.85l-1.527-.897 1.521-2.586 1.516.892c.408-.34.881-.606 1.396-.786v-1.771h3v1.771c.515.18.988.446 1.396.786l1.516-.892 1.521 2.586-1.527.897c.064.299.094.576.094.85s-.03.551-.094.85l1.527.897zm-.355-1.369.507-.862-1.32-.776c.126-.418.27-.949.257-1.327.013-.377-.131-.91-.257-1.327l1.32-.776-.507-.862-1.306.768c-.574-.663-1.369-1.106-2.251-1.274v-1.529h-1v1.529c-.883.168-1.677.61-2.251 1.274l-1.306-.768-.507.862 1.32.776c-.126.418-.27.949-.257 1.327-.013.377.131.91.257 1.327l-1.32.776.507.862 1.306-.768c.575.664 1.369 1.104 2.251 1.274v1.528h1v-1.528c.882-.17 1.676-.611 2.251-1.274zm7.943 8.035c0 1.103-.897 2-2 2-.929 0-1.705-.64-1.929-1.5h-4.071v-4.5h1v3.5h3.071c.224-.86 1-1.5 1.929-1.5 1.103 0 2 .897 2 2zm-1 0c0-.552-.449-1-1-1s-1 .448-1 1 .449 1 1 1 1-.448 1-1zm-9 0c0 1.103-.897 2-2 2s-2-.897-2-2c0-.929.64-1.705 1.5-1.929v-2.071h1v2.071c.86.224 1.5 1 1.5 1.929zm-1 0c0-.552-.449-1-1-1s-1 .448-1 1 .449 1 1 1 1-.448 1-1zm-6-4h1v4.5h-4.071c-.224.86-1 1.5-1.929 1.5-1.103 0-2-.897-2-2s.897-2 2-2c.929 0 1.705.64 1.929 1.5h3.071zm-4 4c0-.552-.449-1-1-1s-1 .448-1 1 .449 1 1 1 1-.448 1-1z"/></svg>