<svg id="Layer_1" viewBox="0 0 24 24" xmlns="http://www.w3.org/2000/svg" data-name="Layer 1"><path d="m8 5c0 .552-.448 1-1 1s-1-.448-1-1 .448-1 1-1 1 .448 1 1zm5 1c0 2.157-1.142 4.119-3 5.191v9.157c0 .935-.364 1.813-1.025 2.476l-.611.611c-.364.364-.848.564-1.363.564s-.999-.2-1.363-.564l-.611-.611c-.661-.662-1.025-1.541-1.025-2.476v-.364c0-.301.117-.583.33-.796l1.25-1.249c.042-.042.042-.136 0-.178l-.99-.99c-.439-.438-.439-1.153 0-1.592l.99-.99c.049-.049.049-.129 0-.178l-1.25-1.249c-.213-.215-.33-.497-.33-.796v-.783c-2.209-1.275-3.367-3.778-2.894-6.326.433-2.338 2.282-4.236 4.6-4.721 1.811-.383 3.661.059 5.072 1.205s2.22 2.844 2.22 4.659zm-1 0c0-1.513-.674-2.928-1.85-3.883-.897-.729-2.01-1.115-3.162-1.115-.356 0-.716.037-1.075.112-1.926.403-3.462 1.98-3.824 3.926-.411 2.212.65 4.383 2.639 5.401.167.086.272.258.272.445v1.08l1.286 1.338c.439.438.439 1.153 0 1.592l-.99.99c-.049.049-.049.129 0 .178l.99.99c.439.438.439 1.153 0 1.592l-1.25 1.249-.037.453c0 .668.26 1.296.732 1.769l.611.611c.351.35.962.35 1.312 0l.611-.611c.472-.473.732-1.101.732-1.769v-9.454c0-.188.105-.359.272-.445 1.682-.86 2.728-2.565 2.728-4.449zm3 1.5c0-.276.224-.5.5-.5h3.5c.827 0 1.5-.673 1.5-1.5v-1.571c-.86-.224-1.5-1-1.5-1.929 0-1.103.897-2 2-2s2 .897 2 2c0 .929-.64 1.705-1.5 1.929v1.571c0 1.379-1.122 2.5-2.5 2.5h-3.5c-.276 0-.5-.224-.5-.5zm6-4.5c.551 0 1-.448 1-1s-.449-1-1-1-1 .448-1 1 .449 1 1 1zm2 19c0 1.103-.897 2-2 2s-2-.897-2-2c0-.929.64-1.705 1.5-1.929v-1.571c0-.827-.673-1.5-1.5-1.5h-6.5c-.276 0-.5-.224-.5-.5s.224-.5.5-.5h6.5c1.378 0 2.5 1.121 2.5 2.5v1.571c.86.224 1.5 1 1.5 1.929zm-1 0c0-.552-.449-1-1-1s-1 .448-1 1 .449 1 1 1 1-.448 1-1zm1-10c0 1.103-.897 2-2 2-.929 0-1.705-.64-1.929-1.5h-6.571c-.276 0-.5-.224-.5-.5s.224-.5.5-.5h6.571c.224-.86 1-1.5 1.929-1.5 1.103 0 2 .897 2 2zm-1 0c0-.552-.449-1-1-1s-1 .448-1 1 .449 1 1 1 1-.448 1-1z"/></svg>