<svg id="Layer_1" viewBox="0 0 24 24" xmlns="http://www.w3.org/2000/svg" data-name="Layer 1"><path d="m9 18.5c0 .276-.224.5-.5.5h-1.5c-.551 0-1-.448-1-1v-4.5c0-.276.224-.5.5-.5s.5.224.5.5v4.5h1.5c.276 0 .5.224.5.5zm4.5-3.5v2c0 1.103-.897 2-2 2s-2-.897-2-2v-2c0-1.103.897-2 2-2s2 .897 2 2zm-1 0c0-.552-.449-1-1-1s-1 .448-1 1v2c0 .552.449 1 1 1s1-.448 1-1zm5.5 1h-1c-.276 0-.5.224-.5.5s.224.5.5.5h.5c0 .552-.449 1-1 1s-1-.448-1-1v-2c0-.552.449-1 1-1 .423 0 .802.268.943.667.092.26.376.398.638.305.26-.092.397-.378.305-.639-.282-.797-1.04-1.333-1.886-1.333-1.103 0-2 .897-2 2v2c0 1.103.897 2 2 2s2-.897 2-2v-.5c0-.276-.224-.5-.5-.5zm4-6.015v9.515c0 2.481-2.019 4.5-4.5 4.5h-11c-2.481 0-4.5-2.019-4.5-4.5v-15c0-2.481 2.019-4.5 4.5-4.5h5.515c1.736 0 3.369.676 4.596 1.904l3.485 3.485c1.228 1.228 1.904 2.86 1.904 4.596zm-6.096-7.374c-.55-.55-1.2-.959-1.904-1.231v5.12c0 .827.673 1.5 1.5 1.5h5.121c-.273-.704-.682-1.354-1.231-1.904l-3.485-3.485zm5.096 7.375c0-.335-.038-.663-.096-.985h-5.404c-1.378 0-2.5-1.122-2.5-2.5v-5.405c-.323-.058-.651-.096-.985-.096h-5.515c-1.93 0-3.5 1.57-3.5 3.5v15c0 1.93 1.57 3.5 3.5 3.5h11c1.93 0 3.5-1.57 3.5-3.5v-9.515z"/></svg>