<?xml version="1.0" encoding="UTF-8" standalone="no"?>
<svg
   version="1.1"
   width="994.5744"
   height="246.00069"
   id="svg51"
   sodipodi:docname="logo2.svg"
   inkscape:version="1.4 (e7c3feb100, 2024-10-09)"
   inkscape:export-filename="logo2.png"
   inkscape:export-xdpi="96"
   inkscape:export-ydpi="96"
   xmlns:inkscape="http://www.inkscape.org/namespaces/inkscape"
   xmlns:sodipodi="http://sodipodi.sourceforge.net/DTD/sodipodi-0.dtd"
   xmlns="http://www.w3.org/2000/svg"
   xmlns:svg="http://www.w3.org/2000/svg">
  <defs
     id="defs51">
    <inkscape:path-effect
       effect="powerclip"
       message=""
       id="path-effect55"
       is_visible="true"
       lpeversion="1"
       inverse="true"
       flatten="false"
       hide_clip="false" />
    <inkscape:path-effect
       effect="powerclip"
       message=""
       id="path-effect54"
       is_visible="true"
       lpeversion="1"
       inverse="true"
       flatten="false"
       hide_clip="false" />
    <inkscape:path-effect
       effect="powerclip"
       message=""
       id="path-effect53"
       is_visible="true"
       lpeversion="1"
       inverse="true"
       flatten="false"
       hide_clip="false" />
    <inkscape:path-effect
       effect="powerclip"
       message=""
       id="path-effect52"
       is_visible="true"
       lpeversion="1"
       inverse="true"
       flatten="false"
       hide_clip="false" />
    <inkscape:path-effect
       effect="powerclip"
       message=""
       id="path-effect51"
       is_visible="true"
       lpeversion="1"
       inverse="true"
       flatten="false"
       hide_clip="false" />
    <clipPath
       clipPathUnits="userSpaceOnUse"
       id="clipPath51">
      <path
         d="m 553.98892,100.38504 c 5.35755,1.92063 8.45837,4.91674 11,10 0.5284,6.2188 0.72493,11.73371 -3,17 -4.5847,4.24085 -8.4478,5.48027 -14.57813,5.41016 -4.41145,-0.74711 -7.40675,-3.21074 -10.42187,-6.41016 -2.64458,-4.8484 -2.70564,-10.58423 -2,-16 3.97216,-8.24988 10.18723,-11.297392 19,-10 z"
         fill="#040404"
         id="path51"
         style="display:none;fill:#040404;fill-opacity:1" />
      <path
         id="lpe_path-effect51"
         style="fill:#040404;fill-opacity:1"
         class="powerclip"
         d="m 517.98892,84.810833 h 64.23948 v 79.574207 h -64.23948 z m 36,15.574207 c -8.81277,-1.297392 -15.02784,1.75012 -19,10 -0.70564,5.41577 -0.64458,11.1516 2,16 3.01512,3.19942 6.01042,5.66305 10.42187,6.41016 6.13033,0.0701 9.99343,-1.16931 14.57813,-5.41016 3.72493,-5.26629 3.5284,-10.7812 3,-17 -2.54163,-5.08326 -5.64245,-8.07937 -11,-10 z" />
    </clipPath>
    <clipPath
       clipPathUnits="userSpaceOnUse"
       id="clipPath52">
      <path
         d="m 381.17642,101.01004 c 3.8103,2.07902 5.81885,4.47078 7.8125,8.375 0,0.99 0,1.98 0,3 -9.57,0 -19.14,0 -29,0 1.03999,-6.23992 1.44102,-7.18318 6,-11 4.76855,-3.337985 10.08669,-2.654692 15.1875,-0.375 z"
         fill="#080808"
         id="path52"
         style="display:none" />
      <path
         id="lpe_path-effect52"
         class="powerclip"
         d="m 342.47658,85.294539 h 61.51234 v 62.588191 h -61.51234 z m 38.69984,15.715501 c -5.10081,-2.279692 -10.41895,-2.962985 -15.1875,0.375 -4.55898,3.81682 -4.96001,4.76008 -6,11 9.86,0 19.43,0 29,0 0,-1.02 0,-2.01 0,-3 -1.99365,-3.90422 -4.0022,-6.29598 -7.8125,-8.375 z" />
    </clipPath>
    <clipPath
       clipPathUnits="userSpaceOnUse"
       id="clipPath53">
      <path
         d="m 456.98892,221.38504 c 3.5,1.6875 3.5,1.6875 6,4 0.78375,0.66 1.5675,1.32 2.375,2 2.61996,4.83685 2.32465,9.62872 1.625,15 -2.11586,4.93702 -5.06531,7.18955 -9.85547,9.30469 -4.16842,1.35151 -7.85697,1.56654 -12.0625,-0.0352 -4.63896,-2.42334 -7.75486,-5.61519 -10.08203,-10.26953 -0.65337,-5.10562 -0.78606,-9.57504 2.1875,-13.9375 5.20897,-6.73032 11.87175,-7.0322 19.8125,-6.0625 z"
         fill="#050505"
         id="path53"
         style="display:none" />
      <path
         id="lpe_path-effect53"
         class="powerclip"
         d="m 419.51434,207.03317 h 62.81439 v 79.85067 h -62.81439 z m 37.47458,14.35187 v -4e-5 c -7.94075,-0.9697 -14.60353,-0.66782 -19.8125,6.0625 -2.97356,4.36246 -2.84087,8.83188 -2.1875,13.9375 2.32717,4.65434 5.44307,7.84619 10.08203,10.26953 4.20553,1.60174 7.89408,1.38671 12.0625,0.0352 4.79016,-2.11514 7.73961,-4.36767 9.85547,-9.30469 0.69965,-5.37128 0.99496,-10.16315 -1.625,-15 -0.8075,-0.68 -1.59125,-1.34 -2.375,-2 -2.5,-2.3125 -2.5,-2.3125 -6,-4 z" />
    </clipPath>
    <clipPath
       clipPathUnits="userSpaceOnUse"
       id="clipPath54">
      <path
         d="m 577.36392,240.13504 c 1.24717,0.0271 1.24717,0.0271 2.51953,0.0547 2.03566,0.0468 4.07072,0.11853 6.10547,0.19531 0.0593,1.4383 0.1016,2.87731 0.13672,4.31641 0.0381,1.20185 0.0381,1.20185 0.0769,2.42797 -0.21362,2.25562 -0.21362,2.25562 -2.40112,5.19312 -5.09561,3.73678 -9.55666,4.90925 -15.8125,4.0625 -4.56944,-2.13889 -4.56944,-2.13889 -6,-5 -0.4375,-3.375 -0.4375,-3.375 0,-7 4.93362,-4.46789 9.08718,-4.51074 15.375,-4.25 z"
         fill="#0e0e0e"
         id="path54"
         style="display:none" />
      <path
         id="lpe_path-effect54"
         class="powerclip"
         d="m 546.33252,206.78571 h 54.75914 v 62.12843 h -54.75914 z m 31.0314,33.34933 v 1e-5 c -6.28782,-0.26074 -10.44138,-0.21789 -15.375,4.25 -0.4375,3.625 -0.4375,3.625 0,7 1.43056,2.86111 1.43056,2.86111 6,5 6.25584,0.84675 10.71689,-0.32572 15.8125,-4.0625 2.1875,-2.9375 2.1875,-2.9375 2.40112,-5.19312 -0.0388,-1.22612 -0.0388,-1.22612 -0.0769,-2.42797 -0.0351,-1.4391 -0.0774,-2.87811 -0.13672,-4.31641 -2.03475,-0.0768 -4.06981,-0.14851 -6.10547,-0.19531 -1.27236,-0.0276 -1.27236,-0.0276 -2.51953,-0.0547 z" />
    </clipPath>
    <clipPath
       clipPathUnits="userSpaceOnUse"
       id="clipPath55">
      <path
         d="m 778.61392,221.51004 c 4.07582,2.26434 5.76281,4.03355 8.375,7.875 0.33,1.65 0.66,3.3 1,5 -10.23,0 -20.46,0 -31,0 1.2,-7.2 1.2,-7.2 5,-11 5.68378,-3.66288 10.2272,-3.86052 16.625,-1.875 z"
         fill="#0d0e0d"
         id="path55"
         style="display:none" />
      <path
         id="lpe_path-effect55"
         class="powerclip"
         d="m 741.38244,206.96846 h 60.60652 v 61.98085 h -60.60652 z m 37.23148,14.54158 c -6.3978,-1.98552 -10.94122,-1.78788 -16.625,1.875 -3.8,3.8 -3.8,3.8 -5,11 10.54,0 20.77,0 31,0 -0.34,-1.7 -0.67,-3.35 -1,-5 -2.61219,-3.84145 -4.29918,-5.61066 -8.375,-7.875 z" />
    </clipPath>
  </defs>
  <sodipodi:namedview
     id="namedview51"
     pagecolor="#ffffff"
     bordercolor="#000000"
     borderopacity="0.25"
     inkscape:showpageshadow="2"
     inkscape:pageopacity="0.0"
     inkscape:pagecheckerboard="0"
     inkscape:deskcolor="#d1d1d1"
     inkscape:zoom="0.94010419"
     inkscape:cx="427.61218"
     inkscape:cy="157.42936"
     inkscape:window-width="1920"
     inkscape:window-height="975"
     inkscape:window-x="0"
     inkscape:window-y="0"
     inkscape:window-maximized="1"
     inkscape:current-layer="svg51"
     showgrid="false"
     showguides="true">
    <sodipodi:guide
       position="410.13574,220.97437"
       orientation="0,-1"
       id="guide1"
       inkscape:locked="false" />
    <sodipodi:guide
       position="408.61081,26.747222"
       orientation="0,-1"
       id="guide2"
       inkscape:locked="false" />
  </sodipodi:namedview>
  <path
     d="m 269.05138,65.380184 c -1.1282,2.397442 -2.50854,4.553386 -3.94854,6.775339 -5.78437,9.25258 -10.04764,19.251501 -13.77503,29.479457 -6.05389,16.5175 -14.25686,25.07934 -30.37685,32.6652 3.6211,-0.41264 6.74244,-1.20252 10.18545,-2.46783 0.85417,-0.31004 1.70835,-0.62006 2.58842,-0.93946 1.7915,-0.70045 3.47986,-1.43219 5.17405,-2.33603 -5.51663,11.86538 -12.32767,21.57771 -21.5375,30.87041 -0.55712,0.56636 -1.11423,1.13274 -1.68823,1.71625 -9.1943,8.78359 -23.79047,19.28428 -36.36135,21.975 7.25968,-23.07119 24.15349,-44.883 38.7675,-63.89458 0.33489,-0.43948 0.66979,-0.87895 1.01482,-1.33173 4.15495,-5.44636 8.48807,-10.60811 13.18927,-15.5926 1.66294,-1.73308 1.66294,-1.73308 3.02591,-3.89526 -2.74931,2.71335 -5.49351,5.43174 -8.23344,8.15456 -0.92948,0.92234 -1.86026,1.84338 -2.79243,2.763 -5.53164,5.45904 -10.76702,10.93296 -15.53705,17.08119 -0.39012,0.48741 -0.78026,0.97483 -1.18222,1.47703 -10.74231,13.42832 -20.10149,27.90332 -28.25236,43.03381 -0.41713,0.77424 -0.83429,1.54849 -1.26408,2.34619 -6.11653,11.43353 -11.69386,23.03199 -16.89417,34.90975 -4.3571,9.89756 -4.3571,9.89756 -6.25093,10.84446 -2.06401,0.26923 -2.06401,0.26923 -4.3075,0 -2.75516,-2.84766 -4.32779,-6.25609 -6.03498,-9.78162 -0.29189,-0.59192 -0.58378,-1.18385 -0.88451,-1.79373 -1.24185,-2.51873 -2.47337,-5.04248 -3.70587,-7.56582 -0.90425,-1.84749 -1.81369,-3.69238 -2.7234,-5.5372 -0.27453,-0.56696 -0.54906,-1.13391 -0.83192,-1.71803 -1.46384,-2.96718 -2.92295,-5.62124 -5.20306,-8.06359 -1.65107,-0.55135 -1.65107,-0.55135 -3.36524,-0.53844 -3.0566,-0.14006 -3.0566,-0.14006 -3.81393,-0.89739 -0.42725,-3.04422 -0.64721,-4.77997 1.0965,-7.37547 1.26242,-1.43022 2.55418,-2.78921 3.92892,-4.11121 0.23691,-0.23691 0.47382,-0.47381 0.71791,-0.7179 4.82323,-0.66529 4.82323,-0.66529 7.00898,0.91509 3.10052,3.1952 5.50039,6.51357 7.75319,10.34723 0.33714,0.56207 0.67429,1.12417 1.02168,1.7033 2.62554,4.42539 5.02019,8.92914 7.18949,13.59729 0.51023,-1.02047 1.02042,-2.04095 1.53049,-3.06149 0.48972,-0.97912 0.98006,-1.95794 1.47087,-2.93652 1.69996,-3.39236 3.38441,-6.79189 5.05837,-10.19718 9.43356,-19.13014 19.63583,-38.06129 32.86152,-54.87856 0.85419,-1.13276 1.70836,-2.26552 2.56197,-3.39871 8.36468,-11.03418 17.59471,-21.52358 28.30845,-30.343374 0.3601,-0.30204 0.72022,-0.60408 1.09124,-0.915273 31.51756,-26.365559 31.51756,-26.365559 43.41959,-26.365559 z"
     fill="#1e5786"
     id="path2"
     style="fill:#2c7bb9;fill-opacity:1;stroke-width:0.717918" />
  <path
     d="m 136.57002,39.176226 c 1.07687,0.0062 1.07687,0.0062 2.17549,0.01244 11.95869,0.285969 21.71544,5.415494 30.36914,13.532624 7.98751,8.697231 12.66136,19.738807 12.54952,31.593942 -0.006,0.893973 -0.013,1.787949 -0.0197,2.709012 -0.0125,1.013357 -0.0125,1.013357 -0.0253,2.047186 -4.9897,-0.464158 -9.60701,-2.053437 -14.35835,-3.589584 -0.068,-1.081377 -0.068,-1.081377 -0.1374,-2.184598 -0.7032,-8.604023 -2.95957,-15.726096 -9.4198,-21.86561 -8.28439,-6.68961 -17.39891,-8.49225 -27.77439,-7.538124 -7.46472,1.456076 -14.13314,6.028991 -18.62098,12.114843 -4.53259,7.065197 -5.85584,13.76155 -6.01535,22.025458 l -0.0452,1.961323 c -0.0467,2.055186 -0.0892,4.110437 -0.13147,6.165719 -0.031,1.398447 -0.0623,2.796889 -0.0939,4.195333 -0.0766,3.41752 -0.14941,6.8351 -0.22014,10.25274 0.53519,-0.0124 1.07038,-0.0249 1.6218,-0.0378 0.70582,-0.01 1.41164,-0.0195 2.13885,-0.0295 0.69807,-0.0124 1.39614,-0.0249 2.11536,-0.0378 2.78705,0.14501 4.60255,0.95548 7.04648,2.2589 -0.4042,2.82945 -1.20551,4.84657 -2.87166,7.17918 h -1.43584 l -0.52699,3.22963 c -0.91804,-0.0333 -2.02699,-0.42458 -2.97284,-0.45893 -1.22643,-0.027 -2.45287,-0.0531 -3.67933,-0.0785 -0.60246,-0.0241 -1.20492,-0.0482 -1.82564,-0.0729 -5.647971,-0.0876 -10.088995,1.74534 -14.363942,5.50496 -4.650571,5.40268 -6.175728,10.98745 -6.110705,17.94511 0.0065,0.90044 0.01296,1.8009 0.01963,2.72863 0.0083,0.68391 0.01666,1.36781 0.02524,2.07245 -0.642254,0.11381 -1.28451,0.22765 -1.946228,0.34492 -8.088403,1.56077 -15.797967,3.87029 -20.892497,10.74351 -4.986728,7.45932 -6.749457,13.62158 -5.877942,22.65364 1.564318,7.74707 5.478809,13.97561 12.083305,18.39377 6.676257,4.24464 12.886954,4.29521 20.584707,4.29912 1.214063,0.0108 2.428116,0.0227 3.642154,0.036 3.175964,0.0312 6.351785,0.0457 9.527878,0.0565 3.24869,0.014 6.49722,0.0442 9.74581,0.073 6.35977,0.0538 12.71952,0.0901 19.07948,0.11497 0.72292,1.50824 1.43966,3.0194 2.15374,4.53185 0.3998,0.84124 0.79958,1.68246 1.21149,2.54917 0.94226,2.25194 0.94226,2.25194 0.94226,4.40568 -7.51435,0.0668 -15.02861,0.11772 -22.54319,0.1488 -3.4902,0.0148 -6.9802,0.035 -10.47028,0.0678 -3.374841,0.0315 -6.749487,0.0486 -10.124465,0.0559 -1.280738,0.005 -2.561469,0.0155 -3.842125,0.0311 -9.159203,0.10721 -17.679348,-0.29103 -25.529516,-5.68802 -0.607085,-0.4072 -1.214177,-0.81438 -1.839661,-1.23391 -8.89893,-6.5032 -14.845184,-15.45319 -16.826175,-26.40601 -1.180054,-11.37481 1.149092,-21.501 7.897084,-30.87041 5.436575,-6.47417 12.142296,-12.58942 20.819583,-13.64043 0.04535,-0.45347 0.09069,-0.90693 0.137414,-1.37412 1.149579,-8.39798 5.05713,-17.00063 11.783929,-22.37603 0.611716,-0.40996 1.223431,-0.81993 1.853682,-1.24232 0.617269,-0.41923 1.234536,-0.83844 1.870511,-1.27037 1.584464,-1.01799 1.584464,-1.01799 3.020297,-1.73591 0.0064,-0.63236 0.0064,-0.63236 0.01277,-1.27751 0.04624,-4.42651 0.106937,-8.85266 0.175656,-13.278881 0.02374,-1.647281 0.0439,-3.294618 0.06029,-4.941987 0.02433,-2.38126 0.06192,-4.762018 0.101833,-7.143061 0.0045,-0.72501 0.0093,-1.450019 0.0139,-2.196999 0.147662,-7.31152 1.7177,-14.222372 5.064797,-20.742682 l 0.747713,-1.466506 c 5.436463,-10.180946 14.887483,-17.629956 25.774023,-21.360298 4.78273,-1.377114 9.20434,-1.929899 14.17517,-1.896451 z"
     fill="#be172c"
     id="path3"
     sodipodi:nodetypes="cccccccccccccccccccccccccccccccccccccccccccccccccccccccccccccccccc"
     style="stroke-width:5;fill:#2c7bb9;fill-opacity:1;stroke:#2c7bb9;stroke-opacity:1;stroke-dasharray:none" />
  <path
     d="m 244.33471,142.19726 c 7.83475,1.24582 13.71104,7.07817 18.66584,12.92252 1.72639,2.53417 3.10775,5.07747 4.30749,7.89707 0.24293,0.56435 0.48586,1.12869 0.73615,1.71014 1.98002,4.93548 2.6429,9.27712 2.58422,14.57761 -0.006,0.74924 -0.0119,1.49849 -0.0182,2.27048 -0.29189,10.07778 -3.49896,17.8553 -10.4813,25.2347 -0.39795,0.46179 -0.79587,0.92358 -1.20587,1.39936 -6.07943,6.70482 -15.55452,10.59141 -24.5148,11.054 -4.12215,0.11848 -8.24235,0.0749 -12.36537,0.0317 -1.51577,-0.005 -3.03153,-0.01 -4.54731,-0.0123 -3.95975,-0.0109 -7.91919,-0.039 -11.87881,-0.071 -4.05241,-0.0296 -8.10486,-0.0425 -12.15734,-0.0569 -7.92947,-0.0309 -15.85872,-0.0796 -23.788,-0.14026 0.43329,-2.76417 1.26907,-4.92563 2.55758,-7.40351 0.49002,-0.95087 0.49002,-0.95087 0.98994,-1.92097 0.2508,-0.47662 0.50159,-0.95322 0.75998,-1.44425 0.74218,-7.2e-4 1.48437,-0.003 2.24903,-0.004 7.03329,-0.012 14.06628,-0.043 21.09942,-0.0918 3.61484,-0.0245 7.22949,-0.0426 10.84443,-0.0456 3.49606,-0.004 6.99164,-0.0237 10.48756,-0.0559 1.32617,-0.009 2.65239,-0.0124 3.97861,-0.009 10.11459,0.0193 19.4841,-0.79817 27.51584,-7.74213 5.4753,-5.57691 8.51636,-12.94079 8.89823,-20.76909 -0.41057,-8.15841 -3.68624,-15.78368 -9.63017,-21.4001 -3.29867,-2.63498 -6.91772,-4.34102 -10.83046,-5.88075 0.44794,-2.70021 1.68549,-4.4436 3.2755,-6.64071 0.45994,-0.64043 0.91989,-1.28082 1.39377,-1.94064 0.35445,-0.48492 0.7089,-0.96985 1.07407,-1.46948 z"
     fill="#1f5786"
     id="path4"
     style="fill:#e41f36;fill-opacity:1;stroke:#e41f36;stroke-width:5;stroke-dasharray:none;stroke-opacity:1" />
  <path
     d="m 561.92642,92.07254 c 7.10499,3.674114 12.34421,10.15762 14.875,17.75 0.0619,0.84563 0.12375,1.69125 0.1875,2.5625 0.0619,0.64453 0.12375,1.28906 0.1875,1.95313 0.42307,7.56244 -1.73376,14.07655 -6.5625,19.92187 -7.11201,5.75734 -12.66999,8.6015 -21.83203,8.45312 -5.41725,-0.63643 -9.34601,-3.36348 -13.79297,-6.32812 0,7.59 0,15.18 0,23 -3.96,0 -7.92,0 -12,0 0,-22.44 0,-44.88 0,-68 3.63,0 7.26,0 11,0 0.33,1.65 0.66,3.3 1,5 0.47051,-0.349336 0.94102,-0.698672 1.42578,-1.058594 0.62262,-0.455039 1.24524,-0.910078 1.88672,-1.378906 0.61488,-0.452461 1.22977,-0.904922 1.86328,-1.371094 6.11355,-3.992788 15.26605,-3.211347 21.76172,-0.503906 z"
     fill="#b8b9b8"
     id="path5"
     clip-path="url(#clipPath51)"
     inkscape:path-effect="#path-effect51"
     inkscape:original-d="m 561.92642,92.07254 c 7.10499,3.674114 12.34421,10.15762 14.875,17.75 0.0619,0.84563 0.12375,1.69125 0.1875,2.5625 0.0619,0.64453 0.12375,1.28906 0.1875,1.95313 0.42307,7.56244 -1.73376,14.07655 -6.5625,19.92187 -7.11201,5.75734 -12.66999,8.6015 -21.83203,8.45312 -5.41725,-0.63643 -9.34601,-3.36348 -13.79297,-6.32812 0,7.59 0,15.18 0,23 -3.96,0 -7.92,0 -12,0 0,-22.44 0,-44.88 0,-68 3.63,0 7.26,0 11,0 0.33,1.65 0.66,3.3 1,5 0.47051,-0.349336 0.94102,-0.698672 1.42578,-1.058594 0.62262,-0.455039 1.24524,-0.910078 1.88672,-1.378906 0.61488,-0.452461 1.22977,-0.904922 1.86328,-1.371094 6.11355,-3.992788 15.26605,-3.211347 21.76172,-0.503906 z"
     transform="matrix(1.1085327,0,0,1.1085327,-77.938925,-49.80674)"
     style="fill:#b3b2b2;fill-opacity:1" />
  <path
     d="m 465.98892,217.38504 c 0.495,0.495 0.495,0.495 1,1 0.33,-1.65 0.66,-3.3 1,-5 2.97,0 5.94,0 9,0 0.0745,6.79522 0.12879,13.5902 0.1648,20.38574 0.015,2.30831 0.0354,4.6166 0.0615,6.92481 0.0367,3.33145 0.0535,6.66252 0.0666,9.99414 0.0155,1.0202 0.031,2.0404 0.0469,3.09152 0.002,7.00007 -0.29953,14.85031 -4.88928,20.5166 -6.81855,6.5982 -15.21315,7.59133 -24.34343,7.58597 -6.59018,-0.23217 -12.45866,-2.02954 -18.10717,-5.49878 -0.66,-0.99 -1.32,-1.98 -2,-3 1.32,-1.98 2.64,-3.96 4,-6 0.66,0.26812 1.32,0.53625 2,0.8125 0.99,0.39188 1.98,0.78375 3,1.1875 0.58137,0.26426 1.16273,0.52852 1.76172,0.80078 6.82457,2.92086 13.55059,3.27061 20.67578,1.07422 2.87359,-1.24813 3.60323,-1.92973 5.5625,-4.5625 1.21548,-4.02628 1.21668,-7.1233 1,-11.3125 -0.9075,0.63937 -1.815,1.27875 -2.75,1.9375 -6.50696,4.12941 -13.7225,3.77467 -21.25,3.0625 -6.95213,-2.14683 -11.41787,-6.7988 -15,-13 -2.885,-6.0575 -3.11118,-12.8366 -1.38281,-19.3125 2.92673,-6.63049 8.59854,-11.72621 15.19531,-14.625 9.36831,-2.91499 17.01776,-1.1896 25.1875,3.9375 z"
     fill="#f7f7f7"
     id="path6"
     style="fill:#f5f5f5;fill-opacity:1"
     clip-path="url(#clipPath53)"
     inkscape:path-effect="#path-effect53"
     inkscape:original-d="m 465.98892,217.38504 c 0.495,0.495 0.495,0.495 1,1 0.33,-1.65 0.66,-3.3 1,-5 2.97,0 5.94,0 9,0 0.0745,6.79522 0.12879,13.5902 0.1648,20.38574 0.015,2.30831 0.0354,4.6166 0.0615,6.92481 0.0367,3.33145 0.0535,6.66252 0.0666,9.99414 0.0155,1.0202 0.031,2.0404 0.0469,3.09152 0.002,7.00007 -0.29953,14.85031 -4.88928,20.5166 -6.81855,6.5982 -15.21315,7.59133 -24.34343,7.58597 -6.59018,-0.23217 -12.45866,-2.02954 -18.10717,-5.49878 -0.66,-0.99 -1.32,-1.98 -2,-3 1.32,-1.98 2.64,-3.96 4,-6 0.66,0.26812 1.32,0.53625 2,0.8125 0.99,0.39188 1.98,0.78375 3,1.1875 0.58137,0.26426 1.16273,0.52852 1.76172,0.80078 6.82457,2.92086 13.55059,3.27061 20.67578,1.07422 2.87359,-1.24813 3.60323,-1.92973 5.5625,-4.5625 1.21548,-4.02628 1.21668,-7.1233 1,-11.3125 -0.9075,0.63937 -1.815,1.27875 -2.75,1.9375 -6.50696,4.12941 -13.7225,3.77467 -21.25,3.0625 -6.95213,-2.14683 -11.41787,-6.7988 -15,-13 -2.885,-6.0575 -3.11118,-12.8366 -1.38281,-19.3125 2.92673,-6.63049 8.59854,-11.72621 15.19531,-14.625 9.36831,-2.91499 17.01776,-1.1896 25.1875,3.9375 z"
     transform="matrix(1.46676,0,0,1.46676,-206.19899,-167.45528)" />
  <path
     d="m 189.28187,102.88747 c 2.11653,1.73292 4.08146,3.59838 5.97785,5.56771 -1.07025,2.35671 -2.43101,4.25781 -4.03828,6.28178 l -1.37414,1.7387 -1.04884,1.31244 c -2.07649,-0.94913 -3.21218,-1.75414 -4.93567,-3.36523 -9.06817,-8.00597 -19.71124,-9.45749 -31.29073,-8.97957 -3.61962,0.27838 -6.55637,1.28759 -9.72027,3.01188 -0.59691,0.30448 -1.19381,0.60894 -1.8088,0.92264 -8.48328,4.67817 -13.68663,10.85435 -18.29286,19.17904 -2.46914,-0.93856 -4.74759,-2.0176 -7.04455,-3.32038 l -1.71908,-0.97029 c -0.42477,-0.24248 -0.84955,-0.48494 -1.28719,-0.73476 l 0.7179,-3.58958 c 1.94138,-4.6527 4.09307,-7.24637 6.77534,-9.46752 1.68054,-1.38711 3.30021,-2.76155 4.84874,-4.29629 5.0559,-4.9618 10.64321,-7.893847 17.09259,-10.645355 0.63947,-0.275782 1.27896,-0.551563 1.93783,-0.8357 14.43757,-4.975277 33.17341,-0.762427 45.21016,8.190485 z"
     fill="#1f5684"
     id="path7"
     sodipodi:nodetypes="ccccccccccccccccccc"
     style="stroke-width:5;fill:#e41f36;fill-opacity:1;stroke:#e41f36;stroke-opacity:1;stroke-dasharray:none" />
  <path
     d="m 391.73892,96.07254 c 7.13348,7.33163 7.25,12.51945 7.25,23.3125 h -40 l 1.87258,5.00554 c 0,0 3.69492,4.61321 4.50242,4.93196 2.625,1.0625 2.625,1.0625 4.625,2.0625 8.7881,0.90967 8.7881,0.90967 16.8125,-2 0.72188,-0.66 1.44375,-1.32 2.1875,-2 2.88438,1.293 4.87219,2.65941 7,5 -1.5134,4.23752 -4.18991,5.80187 -8,8 -7.56398,2.94564 -16.1766,3.52633 -23.8125,0.4375 -6.93678,-3.64691 -12.72256,-8.3902 -15.55859,-15.85547 -1.99408,-8.18687 -1.54158,-15.99951 2.6875,-23.35547 10.52493,-13.91929 26.56193,-14.051218 40.43359,-5.53906 z"
     fill="#b9bab9"
     id="path8"
     clip-path="url(#clipPath52)"
     inkscape:path-effect="#path-effect52"
     inkscape:original-d="m 391.73892,96.07254 c 7.13348,7.33163 7.25,12.51945 7.25,23.3125 h -40 l 1.87258,5.00554 c 0,0 3.69492,4.61321 4.50242,4.93196 2.625,1.0625 2.625,1.0625 4.625,2.0625 8.7881,0.90967 8.7881,0.90967 16.8125,-2 0.72188,-0.66 1.44375,-1.32 2.1875,-2 2.88438,1.293 4.87219,2.65941 7,5 -1.5134,4.23752 -4.18991,5.80187 -8,8 -7.56398,2.94564 -16.1766,3.52633 -23.8125,0.4375 -6.93678,-3.64691 -12.72256,-8.3902 -15.55859,-15.85547 -1.99408,-8.18687 -1.54158,-15.99951 2.6875,-23.35547 10.52493,-13.91929 26.56193,-14.051218 40.43359,-5.53906 z"
     sodipodi:nodetypes="cccccccccccccc"
     transform="matrix(1.1085327,0,0,1.1085327,-77.938925,-49.80674)"
     style="fill:#b3b2b2;fill-opacity:1" />
  <path
     d="m 785.09052,215.18973 c 6.39734,4.02795 10.08817,9.95425 11.89844,17.19531 0,2.97 0,5.94 0,9 -13.2,0 -26.4,0 -40,0 3.65688,7.86997 3.65688,7.86997 10,12 5.31394,1.77132 9.58483,1.5189 14.75,-0.375 1.0725,-0.53625 2.145,-1.0725 3.25,-1.625 1.20656,-0.58781 1.20656,-0.58781 2.4375,-1.1875 0.51562,-0.26812 1.03125,-0.53625 1.5625,-0.8125 2.0625,2.25 2.0625,2.25 4,5 -0.13672,2.03516 -0.13672,2.03516 -1,4 -1.74219,1.23047 -1.74219,1.23047 -3.875,2.1875 -0.69867,0.32356 -1.39735,0.64711 -2.11719,0.98047 -7.04332,2.91873 -15.68364,3.08762 -23.00781,0.96094 -7.01046,-3.25944 -12.74209,-8.54621 -15.52735,-15.91797 -1.56867,-7.33776 -1.8634,-15.88842 2.13282,-22.46875 8.97509,-11.21259 22.2356,-15.78317 35.49609,-8.9375 z"
     fill="#f5f5f5"
     id="path9"
     clip-path="url(#clipPath55)"
     inkscape:path-effect="#path-effect55"
     inkscape:original-d="m 785.09052,215.18973 c 6.39734,4.02795 10.08817,9.95425 11.89844,17.19531 0,2.97 0,5.94 0,9 -13.2,0 -26.4,0 -40,0 3.65688,7.86997 3.65688,7.86997 10,12 5.31394,1.77132 9.58483,1.5189 14.75,-0.375 1.0725,-0.53625 2.145,-1.0725 3.25,-1.625 1.20656,-0.58781 1.20656,-0.58781 2.4375,-1.1875 0.51562,-0.26812 1.03125,-0.53625 1.5625,-0.8125 2.0625,2.25 2.0625,2.25 4,5 -0.13672,2.03516 -0.13672,2.03516 -1,4 -1.74219,1.23047 -1.74219,1.23047 -3.875,2.1875 -0.69867,0.32356 -1.39735,0.64711 -2.11719,0.98047 -7.04332,2.91873 -15.68364,3.08762 -23.00781,0.96094 -7.01046,-3.25944 -12.74209,-8.54621 -15.52735,-15.91797 -1.56867,-7.33776 -1.8634,-15.88842 2.13282,-22.46875 8.97509,-11.21259 22.2356,-15.78317 35.49609,-8.9375 z"
     transform="matrix(1.46676,0,0,1.46676,-206.19899,-167.45528)" />
  <path
     d="m 586.67642,214.51004 c 5.12942,2.99926 7.42907,6.22471 9.3125,11.875 0.0852,2.80426 0.11589,5.58296 0.0977,8.38672 -0.001,0.81701 -0.003,1.63402 -0.004,2.47578 -0.006,2.60837 -0.0181,5.21666 -0.0309,7.825 -0.005,1.76888 -0.01,3.53776 -0.0137,5.30664 -0.011,4.33532 -0.0283,8.67058 -0.0488,13.00586 -2.97,0 -5.94,0 -9,0 -0.66,-1.32 -1.32,-2.64 -2,-4 -1.05188,0.66 -2.10375,1.32 -3.1875,2 -6.62018,3.31599 -14.27846,3.09234 -21.25,0.9375 -4.21969,-3.1905 -7.86362,-6.0348 -9.14844,-11.37109 -0.30186,-4.72195 0.28472,-7.84022 3.27344,-11.56641 3.09663,-3.32868 6.45219,-4.84233 10.99145,-5.22705 1.40609,0.0157 1.40609,0.0157 2.84058,0.0317 1.53237,0.01 1.53237,0.01 3.0957,0.0195 1.0551,0.0168 2.1102,0.0335 3.19727,0.0508 1.07443,0.009 2.14887,0.018 3.25586,0.0273 2.64411,0.0235 5.28776,0.0564 7.93164,0.0977 -0.62954,-6.10152 -0.62954,-6.10152 -4,-11 -3.42992,-1.14331 -6.19864,-1.20382 -9.8125,-1.25 -1.20269,-0.0258 -2.40539,-0.0516 -3.64453,-0.0781 -3.84248,0.35587 -6.15643,1.56964 -9.54297,3.32813 -3,-1 -3,-1 -5,-4 0.13281,-2.05078 0.13281,-2.05078 1,-4 1.74219,-1.23047 1.74219,-1.23047 3.875,-2.1875 1.04801,-0.48533 1.04801,-0.48533 2.11719,-0.98047 7.86622,-3.25974 17.93774,-3.31951 25.69531,0.29297 z"
     fill="#f4f4f4"
     id="path10"
     clip-path="url(#clipPath54)"
     inkscape:path-effect="#path-effect54"
     inkscape:original-d="m 586.67642,214.51004 c 5.12942,2.99926 7.42907,6.22471 9.3125,11.875 0.0852,2.80426 0.11589,5.58296 0.0977,8.38672 -0.001,0.81701 -0.003,1.63402 -0.004,2.47578 -0.006,2.60837 -0.0181,5.21666 -0.0309,7.825 -0.005,1.76888 -0.01,3.53776 -0.0137,5.30664 -0.011,4.33532 -0.0283,8.67058 -0.0488,13.00586 -2.97,0 -5.94,0 -9,0 -0.66,-1.32 -1.32,-2.64 -2,-4 -1.05188,0.66 -2.10375,1.32 -3.1875,2 -6.62018,3.31599 -14.27846,3.09234 -21.25,0.9375 -4.21969,-3.1905 -7.86362,-6.0348 -9.14844,-11.37109 -0.30186,-4.72195 0.28472,-7.84022 3.27344,-11.56641 3.09663,-3.32868 6.45219,-4.84233 10.99145,-5.22705 1.40609,0.0157 1.40609,0.0157 2.84058,0.0317 1.53237,0.01 1.53237,0.01 3.0957,0.0195 1.0551,0.0168 2.1102,0.0335 3.19727,0.0508 1.07443,0.009 2.14887,0.018 3.25586,0.0273 2.64411,0.0235 5.28776,0.0564 7.93164,0.0977 -0.62954,-6.10152 -0.62954,-6.10152 -4,-11 -3.42992,-1.14331 -6.19864,-1.20382 -9.8125,-1.25 -1.20269,-0.0258 -2.40539,-0.0516 -3.64453,-0.0781 -3.84248,0.35587 -6.15643,1.56964 -9.54297,3.32813 -3,-1 -3,-1 -5,-4 0.13281,-2.05078 0.13281,-2.05078 1,-4 1.74219,-1.23047 1.74219,-1.23047 3.875,-2.1875 1.04801,-0.48533 1.04801,-0.48533 2.11719,-0.98047 7.86622,-3.25974 17.93774,-3.31951 25.69531,0.29297 z"
     transform="matrix(1.46676,0,0,1.46676,-206.19899,-167.45528)"
     style="fill:#f5f5f5;fill-opacity:1" />
  <path
     d="m 431.97385,51.496561 c 4.38981,0 8.7796,0 13.30239,0 0.003,1.112727 0.01,2.225452 0.0134,3.371888 0.0242,4.142775 0.0845,8.284381 0.15535,12.426604 0.0256,1.790056 0.0416,3.580305 0.0476,5.370535 0.0107,2.579417 0.0558,5.156239 0.10793,7.735101 -0.003,0.795825 -0.01,1.591641 -0.0134,2.411579 0.12605,4.36515 0.66418,6.213434 3.47871,9.625588 4.50461,3.608024 7.0534,3.785651 12.83771,3.400032 4.65169,-1.45936 6.29162,-2.787218 9.01117,-6.859058 3.29686,-6.910819 2.82468,-14.455313 2.90557,-21.962804 0.0313,-1.508394 0.0643,-3.016742 0.0995,-4.525061 0.078,-3.664866 0.13666,-7.328969 0.17754,-10.994404 4.02397,0 8.04794,0 12.19385,0 0,18.290803 0,36.581588 0,55.426649 -4.02396,0 -8.04794,0 -12.19385,0 -0.36583,-1.82908 -0.73163,-3.65816 -1.10855,-5.54267 -0.80022,0.6859 -1.60043,1.37181 -2.4249,2.07849 -6.57089,4.96468 -12.83307,5.46271 -20.85429,4.57271 -6.76903,-1.93567 -11.82621,-6.24234 -15.51944,-12.193852 -2.12697,-5.239386 -2.51445,-9.96177 -2.43359,-15.545458 0.003,-0.827152 0.006,-1.654312 0.0107,-2.506545 0.012,-2.620167 0.0401,-5.23991 0.0684,-7.859956 0.0107,-1.785491 0.0212,-3.570973 0.0302,-5.356466 0.0244,-4.357794 0.0626,-8.715273 0.10837,-13.072902 z"
     fill="#b8b8b8"
     id="path11"
     style="stroke-width:1.10853;fill:#b2b2b2;fill-opacity:1" />
  <path
     d="m 418.67145,54.822163 c -0.62138,3.728306 -1.57235,6.641357 -3.32558,9.976794 -0.67163,-0.240062 -1.34323,-0.480126 -2.0352,-0.727477 -7.88122,-2.618977 -15.8115,-4.673615 -23.59963,-0.935325 -0.6859,0.548729 -1.37181,1.097458 -2.07849,1.662802 0.20873,2.710139 0.20873,2.710139 1.10854,5.542673 3.78921,2.572568 8.02575,2.938641 12.47097,3.672008 6.63709,1.205143 12.36155,2.806986 17.45939,7.413314 3.01124,4.516848 2.77104,8.008077 2.21708,13.302394 -1.78545,5.802704 -4.83975,8.083734 -9.82956,11.106984 -9.52641,4.37934 -21.04397,2.65762 -30.77045,-0.078 -2.76815,-1.10635 -4.7773,-2.48574 -7.0669,-4.37784 0.60664,-3.740892 1.1694,-5.633956 3.32561,-8.86826 0.60729,0.240063 1.21461,0.480129 1.84032,0.727478 8.50375,2.986663 16.93841,3.432003 25.87299,2.598115 1.09746,-0.73163 2.19489,-1.463269 3.3256,-2.217052 0.27747,-2.864243 0.27747,-2.864243 0,-5.542676 -6.14913,-1.957169 -12.23828,-3.578095 -18.56792,-4.849838 -6.02414,-1.342635 -9.3996,-2.815765 -13.57953,-7.344027 -2.11053,-4.22106 -1.90363,-8.725675 -1.10853,-13.302392 2.81217,-5.262894 6.78672,-8.881385 12.33244,-11.085326 10.99979,-2.89073 21.90792,-1.724864 32.00885,3.325603 z"
     fill="#b8b8b8"
     id="path12"
     style="stroke-width:1.10853;fill:#b2b2b2;fill-opacity:1" />
  <path
     d="m 515.43076,144.06265 c 4.84032,0 9.68063,0 14.66761,0 0.48403,2.90417 0.96805,5.80837 1.46675,8.80054 1.02857,-0.90754 2.05714,-1.8151 3.11688,-2.75016 8.93833,-6.60661 18.33475,-7.27961 29.15185,-6.05038 8.66947,2.5774 14.10857,7.2286 19.06787,14.6676 2.58013,7.37999 3.33669,14.10608 3.22002,21.85816 -0.004,1.05982 -0.008,2.11965 -0.0137,3.2116 -0.0162,3.3472 -0.0531,6.6938 -0.0904,10.0408 -0.0145,2.28514 -0.0282,4.57025 -0.04,6.8554 -0.0322,5.56838 -0.0826,11.1363 -0.14315,16.70444 -4.84033,0 -9.68064,0 -14.66763,0 -0.0212,-1.42787 -0.0428,-2.85573 -0.0648,-4.32685 -0.0852,-5.31733 -0.19856,-10.63374 -0.32012,-15.95032 -0.0488,-2.29739 -0.0897,-4.59495 -0.12321,-6.89263 -0.0496,-3.31039 -0.1262,-6.6192 -0.20806,-9.92891 -0.008,-1.02092 -0.0188,-2.04183 -0.0284,-3.09364 -0.19097,-6.36964 -1.24594,-10.45838 -5.12248,-15.54454 -6.23229,-3.84936 -13.42481,-3.77375 -20.53464,-2.93351 -5.48125,2.38314 -8.57706,5.2161 -11.73407,10.26731 -1.70736,5.12205 -1.77654,9.37478 -1.93087,14.77646 -0.0305,1.00302 -0.0612,2.00603 -0.0924,3.03947 -0.0959,3.19791 -0.18229,6.39597 -0.26858,9.59417 -0.0634,2.17054 -0.12743,4.34108 -0.19195,6.5116 -0.15688,5.31587 -0.30551,10.63193 -0.44977,15.94815 -4.84031,0 -9.68061,0 -14.6676,0 0,-24.68557 0,-49.37115 0,-74.80476 z"
     fill="#f2f2f2"
     id="path13"
     style="fill:#f5f5f5;fill-opacity:1;stroke-width:1.46676" />
  <path
     d="m 748.64563,144.06265 c 4.84032,0 9.68063,0 14.6676,0 0.0214,1.47229 0.0428,2.94459 0.0648,4.4615 0.0853,5.48132 0.19855,10.96174 0.32015,16.44233 0.0488,2.36853 0.0898,4.73724 0.12321,7.10606 0.0496,3.41231 0.12619,6.82307 0.20806,10.23472 0.008,1.05301 0.0188,2.10599 0.0284,3.19089 0.18787,6.45717 1.13733,10.64175 5.12243,15.76814 6.55525,4.37015 12.84989,3.6434 20.53466,2.93353 5.29585,-1.98596 6.77682,-3.47139 9.67039,-8.29708 2.33889,-5.55772 2.68999,-9.69594 2.81425,-15.70967 0.0265,-0.9968 0.0527,-1.99358 0.0797,-3.02057 0.0789,-3.1527 0.12891,-6.30509 0.17802,-9.45835 0.0488,-2.15053 0.0992,-4.301 0.15183,-6.45146 0.12403,-5.2441 0.22226,-10.48836 0.30653,-15.73328 4.84031,0 9.68062,0 14.66759,0 0,23.7175 0,47.43502 0,71.87124 -4.35627,0 -8.71254,0 -13.20083,0 0,-2.90418 0,-5.80836 0,-8.80055 -0.96807,0 -1.93611,0 -2.93352,0 -0.48404,1.45208 -0.96806,2.90417 -1.46676,4.40028 -9.77923,6.58215 -19.18802,7.54896 -30.80196,5.86703 -8.7878,-3.3874 -14.92409,-9.42455 -19.19896,-17.79701 -1.75258,-5.51668 -1.69973,-10.74814 -1.62217,-16.47132 0.004,-1.16163 0.008,-2.3233 0.0137,-3.52015 0.0163,-3.69122 0.0531,-7.38191 0.0906,-11.07296 0.0145,-2.51047 0.0282,-5.02098 0.04,-7.5315 0.0323,-6.13746 0.083,-12.27455 0.14329,-18.41182 z"
     fill="#f4f4f4"
     id="path14"
     style="fill:#f5f5f5;fill-opacity:1;stroke-width:1.46676" />
  <path
     d="m 363.38618,148.64627 c 0.80354,0.42352 1.60712,0.84705 2.43505,1.28341 -0.73092,5.40876 -1.61445,8.22105 -5.86704,11.73408 -1.60337,-0.72604 -3.20672,-1.45207 -4.85863,-2.20013 -9.06727,-3.38811 -18.5803,-3.85036 -27.6851,-0.45836 -2.952,2.49603 -2.952,2.49603 -3.57525,6.32541 0.56739,3.87522 0.56739,3.87522 3.8216,5.91861 6.71986,3.25993 13.72287,4.29247 21.03026,5.62925 8.32043,1.66409 15.2686,3.86078 20.61772,10.91191 2.0104,7.0364 1.46407,12.13027 -1.28342,18.88453 -4.53277,7.22966 -12.03027,9.60209 -19.80127,12.19243 -14.45126,0.91087 -28.64383,0.94984 -41.06928,-7.3338 0.80265,-4.94976 1.54728,-7.45457 4.40028,-11.73408 1.86048,0.63527 1.86048,0.63527 3.75858,1.28342 1.66385,0.54454 3.32769,1.08905 5.04198,1.65009 1.54284,0.54454 3.08569,1.08908 4.6753,1.65012 8.09185,1.85714 17.11379,2.93922 25.07816,0.0802 3.04379,-1.6808 3.04379,-1.6808 3.61534,-6.31393 0.12101,-1.39159 0.242,-2.78318 0.3667,-4.21695 -5.75349,-3.51598 -10.63338,-4.82657 -17.32611,-5.77536 -9.37899,-1.41149 -17.84944,-3.6902 -25.20995,-9.90064 -2.35465,-5.4451 -3.27398,-10.66022 -2.93352,-16.59272 3.69042,-7.5228 8.9252,-12.56756 16.44375,-16.26039 12.58761,-4.12536 26.52668,-2.2821 38.32485,3.24289 z"
     fill="#f5f5f5"
     id="path15"
     style="fill:#f5f5f5;fill-opacity:1;stroke-width:1.46676" />
  <path
     d="m 692.90874,127.92828 c 4.84031,0 9.68062,0 14.6676,0 0,5.80838 0,11.61676 0,17.60113 6.77643,0 13.55287,0 20.53464,0 0,3.87224 0,7.74448 0,11.73408 -6.77642,0 -13.55286,0 -20.53464,0 0.16678,6.72343 0.3527,13.44539 0.55004,20.16795 0.0453,1.90966 0.0908,3.8193 0.13746,5.78682 0.0569,1.83403 0.11326,3.66804 0.17187,5.55764 0.0691,2.53478 0.0691,2.53478 0.13966,5.1208 0.44812,4.25076 1.05498,6.76975 3.40119,10.30312 5.56428,2.78215 11.79856,1.7854 17.60112,0 1.4521,3.3882 2.90418,6.77644 4.40029,10.26732 -6.13564,5.07776 -11.85315,5.05899 -19.47468,4.81282 -5.82775,-0.60203 -9.22742,-1.73115 -14.26082,-4.81282 -6.64046,-8.21321 -7.52232,-14.2206 -7.47705,-24.54532 0.004,-1.90019 0.008,-3.80038 0.0146,-5.75819 0.0122,-1.99959 0.0247,-3.9992 0.0371,-5.99881 0.007,-2.02253 0.0146,-4.04505 0.0201,-6.06757 0.0174,-4.94465 0.0414,-9.88919 0.0716,-14.83376 -4.35626,0 -8.71254,0 -13.20083,0 0,-3.87225 0,-7.7445 0,-11.73408 4.35627,0 8.71255,0 13.20083,0 0,-5.80837 0,-11.61676 0,-17.60113 z"
     fill="#f4f4f4"
     id="path16"
     style="fill:#f5f5f5;fill-opacity:1;stroke-width:1.46676" />
  <path
     d="m 880.65404,144.06265 c 0,4.35628 0,8.71255 0,13.20084 -2.02687,0.36301 -4.05373,0.72605 -6.14205,1.10006 -6.14993,1.3999 -10.02265,2.94499 -14.39258,7.7005 -5.74591,9.91061 -5.21047,20.22414 -5.40868,31.44367 -0.0502,1.91249 -0.10023,3.82497 -0.15184,5.79541 -0.12049,4.69904 -0.22207,9.39772 -0.30652,14.09752 -4.35629,0 -8.71255,0 -13.20084,0 0,-23.7175 0,-47.43501 0,-71.87124 4.35626,0 8.71254,0 13.20084,0 0.48402,2.90418 0.96805,5.80836 1.46676,8.80056 1.27057,-1.14957 2.54115,-2.29914 3.85024,-3.48356 6.44476,-5.35296 12.70021,-7.27696 21.08467,-6.78376 z"
     fill="#fcfcfc"
     id="path20"
     style="fill:#f5f5f5;fill-opacity:1;stroke-width:1.46676" />
  <path
     d="m 384.88912,144.06265 c 4.84028,0 9.68061,0 14.66759,0 0,24.68557 0,49.37114 0,74.80476 -4.84031,0 -9.6806,0 -14.66759,0 0,-24.68557 0,-49.37115 0,-74.80476 z"
     fill="#eff0ef"
     id="path21"
     style="fill:#f5f5f5;fill-opacity:1;stroke-width:1.46676" />
  <path
     d="m 389.10605,114.33783 c 1.02857,0.007 2.05712,0.0151 3.11686,0.0229 1.02856,-0.007 2.05713,-0.0151 3.11687,-0.0229 2.75018,0.38962 2.75018,0.38962 5.6837,3.32314 0.80703,8.87741 0.80703,8.87741 -1.65012,13.10917 -4.05529,2.298 -6.97721,2.13011 -11.55073,1.55841 -2.75017,-1.55841 -2.75017,-1.55841 -4.40029,-4.40027 -0.45835,-5.22533 -0.45835,-5.22533 0,-10.26731 2.93354,-2.93352 2.93354,-2.93352 5.68371,-3.32314 z"
     fill="#f4f4f4"
     id="path28"
     style="fill:#f5f5f5;fill-opacity:1;stroke-width:1.46676" />
</svg>
