<?xml version="1.0" encoding="UTF-8" standalone="no"?>
<!-- Created with Inkscape (http://www.inkscape.org/) -->

<svg
   xmlns:dc="http://purl.org/dc/elements/1.1/"
   xmlns:cc="http://creativecommons.org/ns#"
   xmlns:rdf="http://www.w3.org/1999/02/22-rdf-syntax-ns#"
   xmlns:svg="http://www.w3.org/2000/svg"
   xmlns="http://www.w3.org/2000/svg"
   xmlns:sodipodi="http://sodipodi.sourceforge.net/DTD/sodipodi-0.dtd"
   xmlns:inkscape="http://www.inkscape.org/namespaces/inkscape"
   width="175.15895mm"
   height="39.11314mm"
   viewBox="0 0 175.15895 39.11314"
   version="1.1"
   id="svg3774"
   inkscape:version="0.92.4 (5da689c313, 2019-01-14)"
   sodipodi:docname="logo.svg">
  <defs
     id="defs3768" />
  <sodipodi:namedview
     id="base"
     pagecolor="#ffffff"
     bordercolor="#666666"
     borderopacity="1.0"
     inkscape:pageopacity="0.0"
     inkscape:pageshadow="2"
     inkscape:zoom="0.35"
     inkscape:cx="322.43761"
     inkscape:cy="-377.51398"
     inkscape:document-units="mm"
     inkscape:current-layer="layer1"
     showgrid="false"
     inkscape:window-width="1366"
     inkscape:window-height="731"
     inkscape:window-x="0"
     inkscape:window-y="0"
     inkscape:window-maximized="1"
     fit-margin-top="0"
     fit-margin-left="0"
     fit-margin-right="0"
     fit-margin-bottom="0" />
  <metadata
     id="metadata3771">
    <rdf:RDF>
      <cc:Work
         rdf:about="">
        <dc:format>image/svg+xml</dc:format>
        <dc:type
           rdf:resource="http://purl.org/dc/dcmitype/StillImage" />
        <dc:title></dc:title>
      </cc:Work>
    </rdf:RDF>
  </metadata>
  <g
     inkscape:label="Calque 1"
     inkscape:groupmode="layer"
     id="layer1"
     transform="translate(-20.521716,-9.836287)">
    <g
       id="g3724"
       transform="translate(1.8400748,-17.950172)">
      <path
         style="fill:#6c6d70;stroke-width:0.26458332"
         d="m 26.55674,41.453881 c 0.01357,-6.57163 3.40886,-10.492422 9.086117,-10.492422 2.952451,0 4.449974,0.559054 6.252069,2.33402 1.6598,1.634811 2.430521,3.263942 2.758837,5.831558 l 0.181406,1.418704 -0.872942,-0.534603 c -0.480116,-0.294033 -1.35995,-0.664031 -1.955186,-0.822218 -0.942851,-0.250568 -1.122598,-0.422293 -1.395521,-1.333226 -0.927658,-3.096243 -5.495679,-4.22977 -8.457403,-2.098655 -1.181058,0.849833 -1.632538,2.238618 -1.632538,5.021814 v 2.561756 l -1.080105,-0.274162 c -0.748668,-0.190031 -1.357587,-0.188997 -1.984375,0.0034 l -0.904269,0.277537 z"
         id="path3730"
         inkscape:connector-curvature="0" />
      <path
         style="fill:#e10f46;stroke-width:0.26458332"
         d="M 24.303871,61.479232 C 21.956068,60.923864 20.31367,59.7221 19.367318,57.867099 c -1.748643,-3.427625 0.0034,-8.063341 3.486286,-9.224301 1.114772,-0.371592 1.159607,-0.430004 1.451297,-1.890803 0.675287,-3.381864 4.101411,-4.892288 6.663874,-2.937801 l 0.861803,0.657329 0.378125,-0.904979 c 1.429267,-3.420719 6.149792,-5.426624 10.081061,-4.283772 1.266058,0.368053 1.85067,0.750816 3.183064,2.084043 1.762898,1.764 2.442565,3.220182 2.573221,5.51312 0.06952,1.220038 0.08615,1.240676 1.45904,1.811091 5.237252,2.175994 5.464661,9.594157 0.3708,12.095668 l -1.494935,0.734139 -11.773958,0.04179 c -6.475677,0.02299 -12.012083,-0.01453 -12.303125,-0.08339 z m 13.305348,-7.811489 0.07618,-2.296842 0.916008,0.148648 c 0.503804,0.08176 0.916006,0.04079 0.916006,-0.09103 0,-0.131821 -0.893982,-1.127691 -1.986626,-2.213044 l -1.986627,-1.973368 -2.046135,2.046134 -2.046135,2.046137 h 0.990053 0.990054 v 2.392378 2.392381 l 2.050521,-0.07728 2.05052,-0.07727 z M 87.406993,37.046875 c 0,-5.909027 0.01535,-6.085416 0.529167,-6.085416 0.418478,0 0.529166,0.176389 0.529166,0.843251 v 0.843251 l 0.727605,-0.681235 c 0.879435,-0.82339 1.644512,-1.077872 3.149695,-1.04766 2.920637,0.05862 4.775887,2.615324 4.060801,5.596143 -0.756838,3.154855 -4.8705,4.429945 -7.1735,2.223532 l -0.764601,-0.732535 v 2.563043 c 0,2.386653 -0.03642,2.563043 -0.529166,2.563043 -0.513829,0 -0.529167,-0.17639 -0.529167,-6.085417 z m 6.357273,1.401205 c 0.927045,-0.638941 1.266735,-1.125451 1.59077,-2.278322 1.109795,-3.948513 -4.692382,-6.186978 -6.447866,-2.487571 -1.196512,2.521463 0.422614,5.213263 3.137305,5.215782 0.586086,5.56e-4 1.359992,-0.201906 1.719791,-0.449889 z m -25.936438,1.275631 c -1.362647,-0.290778 -2.121562,-0.768718 -1.946215,-1.225664 0.183124,-0.477213 0.09144,-0.47751 1.243947,0.004 1.091901,0.456226 3.147322,0.522947 3.888597,0.126228 0.648232,-0.346923 1.087744,-1.167409 0.894752,-1.670336 -0.177546,-0.462673 -1.02956,-0.813265 -3.022748,-1.243815 -1.951114,-0.421462 -2.587421,-0.864991 -2.789978,-1.944714 -0.209664,-1.117605 0.178707,-1.8817 1.233728,-2.427273 0.95572,-0.494221 3.292014,-0.547462 4.631068,-0.105534 0.822211,0.271354 0.898027,0.363283 0.570079,0.691231 -0.291682,0.291681 -0.544068,0.315208 -1.102757,0.102795 -1.34543,-0.511531 -3.02724,-0.343577 -3.74479,0.373975 -0.357188,0.357188 -0.649433,0.773906 -0.649433,0.926042 0,0.623321 1.10224,1.304899 2.556015,1.580528 1.958908,0.371402 2.753725,0.777699 3.249583,1.661131 0.490641,0.874136 0.178131,1.926006 -0.778515,2.6204 -0.76181,0.552968 -2.883294,0.819058 -4.233333,0.53097 z m 9.949989,-0.118071 c -1.814105,-0.54761 -2.131769,-1.290964 -2.231954,-5.222935 -0.0845,-3.316387 -0.07031,-3.421246 0.463021,-3.421246 0.524007,0 0.550193,0.139146 0.550193,2.923555 0,2.121435 0.112366,3.140847 0.409549,3.715534 1.000556,1.934866 4.427849,1.656499 5.299836,-0.430456 0.240192,-0.574861 0.376031,-1.858834 0.376031,-3.554302 0,-2.477942 0.03517,-2.654331 0.529167,-2.654331 0.507786,0 0.529167,0.176389 0.529167,4.365625 0,4.189235 -0.02138,4.365624 -0.529167,4.365624 -0.397253,0 -0.529167,-0.176389 -0.529167,-0.707578 v -0.707579 l -0.635886,0.597383 c -0.349737,0.32856 -1.093877,0.703662 -1.653646,0.833558 -1.238829,0.287476 -1.290973,0.285395 -2.577144,-0.102852 z M 55.656995,33.739584 v -5.953125 h 4.101041 c 3.924652,0 4.101042,0.02276 4.101042,0.529166 0,0.503035 -0.17639,0.529167 -3.571875,0.529167 h -3.571875 v 2.248958 2.248959 h 3.175 c 2.645833,0 3.175,0.06614 3.175,0.396875 0,0.330729 -0.529167,0.396875 -3.175,0.396875 h -3.175 v 2.381249 2.38125 h 3.704167 c 3.116204,0 3.704166,0.063 3.704166,0.396875 0,0.336242 -0.646758,0.396875 -4.233333,0.396875 h -4.233333 z"
         id="path3728"
         inkscape:connector-curvature="0" />
      <path
         style="fill:#096fb2;stroke-width:0.26458332"
         d="m 85.951785,66.760228 c -1.311841,-0.173992 -3.600463,-0.881721 -4.336489,-1.341009 -0.379828,-0.237016 -0.719902,-0.446672 -0.755727,-0.465904 -0.03582,-0.01924 0.294982,-0.699839 0.735116,-1.512464 l 0.800246,-1.477497 1.232106,0.688639 c 1.660154,0.927878 5.046331,1.15598 6.552242,0.441378 1.123264,-0.533025 1.974638,-2.036456 1.984404,-3.504232 l 0.0058,-0.87336 -0.859896,0.638384 c -3.261254,2.421141 -8.688086,1.121796 -10.548913,-2.525729 -0.704813,-1.381545 -0.912046,-3.501207 -0.507267,-5.18851 0.413906,-1.725356 2.036286,-3.604001 3.836204,-4.442153 2.369944,-1.103593 6.292093,-0.692759 7.516955,0.787381 0.54235,0.655394 0.827489,0.533085 0.827489,-0.354944 v -0.79375 h 1.866985 1.866984 l -0.08105,7.606771 c -0.07678,7.206596 -0.11109,7.662447 -0.652129,8.665104 -1.578851,2.92594 -5.005956,4.245705 -9.483084,3.651895 z M 90.53177,56.61926 c 0.973074,-0.593267 1.638239,-1.904254 1.636733,-3.225866 -0.004,-3.551446 -5.283744,-4.863179 -7.33132,-1.821455 -1.124257,1.670111 -0.628862,4.034261 1.061302,5.064813 1.162772,0.708985 3.455918,0.700325 4.633285,-0.01749 z M 58.1159,61.239972 c -0.903176,-0.198011 -2.236539,-0.661225 -2.963026,-1.029364 l -1.320888,-0.669345 0.687187,-1.523757 c 0.377952,-0.838065 0.712568,-1.556885 0.74359,-1.597377 0.03102,-0.04049 0.650793,0.224923 1.37727,0.589812 2.812182,1.412478 6.85673,1.6202 8.136538,0.41788 0.877797,-0.824648 0.882136,-1.919427 0.01032,-2.605195 -0.362825,-0.285399 -1.642747,-0.777502 -2.84427,-1.093566 -4.749398,-1.249338 -5.923383,-1.824405 -7.006939,-3.432296 -0.706951,-1.049041 -0.819367,-3.234397 -0.236284,-4.593283 0.482018,-1.12335 1.892456,-2.437337 3.206549,-2.987273 1.508125,-0.631135 4.079047,-0.893272 6.1771,-0.629831 1.868672,0.234639 4.803108,1.188427 4.803108,1.56117 0,0.116956 -0.293984,0.877403 -0.653301,1.689877 l -0.653299,1.477227 -1.397222,-0.630743 c -3.469246,-1.566121 -7.61492,-0.850757 -7.61492,1.314009 0,1.296582 0.915279,1.782696 5.751984,3.054934 2.517026,0.662075 4.276103,1.71944 4.953671,2.977613 0.721815,1.340329 0.487297,4.048474 -0.457903,5.287693 -1.870319,2.452115 -6.146303,3.419998 -10.699263,2.421815 z m 64.52128,0.131541 c -1.43778,-0.285901 -2.60181,-0.956792 -3.31108,-1.908339 -0.79134,-1.061646 -0.77871,-3.464947 0.0241,-4.59045 1.0187,-1.428138 2.17827,-1.807551 5.82604,-1.906283 3.22148,-0.08719 3.24115,-0.09158 3.24115,-0.723429 0,-0.349639 -0.34743,-1.024538 -0.77205,-1.499775 -0.73887,-0.826942 -0.85541,-0.864071 -2.71198,-0.864071 -1.47494,0 -2.22186,0.14087 -3.11612,0.587701 -0.6469,0.323236 -1.19813,0.561361 -1.22494,0.529167 -0.0268,-0.0322 -0.3611,-0.680369 -0.74285,-1.440387 l -0.69409,-1.381852 0.7319,-0.378479 c 2.70064,-1.396553 7.2597,-1.621065 9.62886,-0.474173 1.42761,0.691089 2.46309,2.053085 2.84998,3.748648 0.14943,0.654844 0.27459,3.244454 0.27815,5.754688 l 0.006,4.564062 h -1.98437 -1.98438 v -0.946393 -0.946396 l -0.80404,0.804045 c -0.74344,0.743437 -1.24981,0.922462 -3.42929,1.212403 -0.3638,0.0484 -1.17897,-0.01492 -1.81148,-0.140687 z m 4.46458,-3.079684 c 1.02294,-0.705033 1.29816,-1.188932 1.30723,-2.298396 l 0.008,-1.02948 -2.30668,0.143907 c -2.08827,0.130283 -2.36475,0.211423 -2.92002,0.856964 -0.69386,0.806667 -0.61093,1.568786 0.25192,2.314863 0.70577,0.610262 2.78133,0.617149 3.65913,0.01214 z m 14.01605,3.075924 c -1.94073,-0.389131 -3.27521,-1.67181 -3.71582,-3.571563 -0.13239,-0.570822 -0.24355,-2.496373 -0.24702,-4.279003 l -0.006,-3.241146 h -1.05834 -1.05833 v -1.587499 -1.5875 h 1.05833 1.05834 v -1.852084 -1.852083 h 2.11666 2.11667 v 1.852083 1.852084 h 1.85208 1.85209 v 1.5875 1.587499 h -1.85209 -1.85208 v 3.439584 c 0,3.086806 0.0543,3.493857 0.52917,3.96875 0.58674,0.58674 2.48278,0.742463 2.79954,0.22993 0.10486,-0.169669 0.45531,0.365319 0.80936,1.23557 0.34344,0.844145 0.62443,1.564881 0.62443,1.601634 0,0.142407 -1.7714,0.606259 -2.77812,0.727469 -0.58209,0.07008 -1.59394,0.02003 -2.24856,-0.111225 z m 12.34337,-0.0024 c -1.60169,-0.255733 -3.09348,-1.224124 -3.91067,-2.538598 -0.5995,-0.964327 -0.63175,-1.25826 -0.7132,-6.500103 l -0.0853,-5.490104 h 2.00353 2.00353 v 4.241831 c 0,4.573725 0.22615,5.649349 1.35384,6.439215 0.89758,0.628687 2.90377,0.564346 3.77514,-0.121076 1.32914,-1.045607 1.48561,-1.710558 1.48561,-6.313606 v -4.246473 h 2.11666 2.11667 v 7.276042 7.276041 h -1.98438 -1.98437 v -0.94956 -0.949563 l -0.78703,0.662241 c -1.29664,1.091052 -3.31348,1.545156 -5.39003,1.213604 z m 31.34281,-0.01074 c -4.13622,-0.686605 -6.58214,-3.7235 -6.33004,-7.859453 0.12377,-2.030564 0.66782,-3.316714 1.97026,-4.657797 1.41967,-1.461788 2.84108,-2.070698 5.1567,-2.209051 4.63392,-0.276868 7.80201,2.29322 8.10858,6.578028 l 0.1311,1.832184 h -5.5918 c -5.53075,0 -5.5918,0.0062 -5.5918,0.564071 0,0.78876 1.68209,2.290477 2.80064,2.500318 1.4623,0.27433 3.50533,-0.02191 4.32365,-0.626917 l 0.74035,-0.547362 1.13139,1.152797 1.13138,1.1528 -0.76422,0.67178 c -1.43251,1.259213 -4.56664,1.888326 -7.21619,1.448501 z m 4.99675,-8.987224 c 0,-0.890736 -0.96436,-1.996308 -2.15789,-2.473862 -1.37748,-0.551159 -2.85595,-0.346281 -3.91169,0.54206 -0.75317,0.633756 -1.43828,2.033971 -1.14076,2.331487 0.0851,0.08513 1.74228,0.154784 3.68256,0.154784 3.40505,0 3.52778,-0.01929 3.52778,-0.554469 z M 72.854911,54.1125 v -7.276042 h 1.984375 1.984374 v 7.276042 7.276041 h -1.984374 -1.984375 z m 27.516669,0 v -7.276042 h 1.98437 c 1.94028,0 1.98438,0.01471 1.98438,0.661459 0,0.681148 0.60413,0.917739 0.94306,0.369323 0.40711,-0.658709 2.39378,-1.283842 4.09822,-1.289555 2.93768,-0.0098 5.09085,1.467149 5.81385,3.988094 0.14155,0.493567 0.25737,3.130603 0.25737,5.860079 v 4.962683 h -1.98438 -1.98437 l -0.002,-4.034896 c -0.002,-5.626054 -0.42888,-6.836544 -2.55095,-7.234647 -1.64809,-0.309181 -3.0232,0.330004 -3.73143,1.73446 -0.54237,1.075561 -0.59531,1.552006 -0.59531,5.357813 l 1.1e-4,4.17727 h -2.11667 -2.11666 z m 67.46874,0 v -7.276042 h 1.98438 1.98437 v 0.834758 c 0,0.781481 0.0299,0.807738 0.46778,0.411422 0.74963,-0.6784 2.76591,-1.498645 3.69941,-1.504953 l 0.8599,-0.0058 v 1.852083 1.852083 h -1.1515 c -1.36557,0 -2.75709,0.829469 -3.34559,1.994252 -0.28761,0.569243 -0.42075,1.924881 -0.48627,4.951061 l -0.0902,4.167187 h -1.96113 -1.96113 z M 73.516369,44.150186 c -0.834252,-0.501375 -1.173128,-1.081003 -1.182211,-2.022108 -0.01272,-1.318537 0.970788,-2.170786 2.505128,-2.170786 3.22984,0 3.435421,4.024519 0.224443,4.393813 -0.560007,0.06441 -1.256318,-0.02601 -1.54736,-0.200919 z"
         id="path3726"
         inkscape:connector-curvature="0" />
    </g>
  </g>
</svg>
