<?xml version="1.0" encoding="UTF-8" standalone="no"?>
<!-- Created with Inkscape (http://www.inkscape.org/) -->

<svg
   width="200mm"
   height="39.11314mm"
   viewBox="0 0 200 39.11314"
   version="1.1"
   id="svg3774"
   inkscape:version="0.92.4 (5da689c313, 2019-01-14)"
   sodipodi:docname="logo.svg"
   xml:space="preserve"
   inkscape:export-filename="logo-ur.svg"
   inkscape:export-xdpi="96"
   inkscape:export-ydpi="96"
   xmlns:inkscape="http://www.inkscape.org/namespaces/inkscape"
   xmlns:sodipodi="http://sodipodi.sourceforge.net/DTD/sodipodi-0.dtd"
   xmlns="http://www.w3.org/2000/svg"
   xmlns:svg="http://www.w3.org/2000/svg"
   xmlns:rdf="http://www.w3.org/1999/02/22-rdf-syntax-ns#"
   xmlns:cc="http://creativecommons.org/ns#"
   xmlns:dc="http://purl.org/dc/elements/1.1/"><defs
     id="defs3768" /><sodipodi:namedview
     id="base"
     pagecolor="#ffffff"
     bordercolor="#666666"
     borderopacity="1.0"
     inkscape:pageopacity="0"
     inkscape:pageshadow="2"
     inkscape:zoom="0.35"
     inkscape:cx="322.43761"
     inkscape:cy="-377.51398"
     inkscape:document-units="mm"
     inkscape:current-layer="layer1"
     showgrid="false"
     inkscape:window-width="1366"
     inkscape:window-height="731"
     inkscape:window-x="0"
     inkscape:window-y="0"
     inkscape:window-maximized="1"
     fit-margin-top="0"
     fit-margin-left="0"
     fit-margin-right="0"
     fit-margin-bottom="0"
     inkscape:showpageshadow="2"
     inkscape:pagecheckerboard="0"
     inkscape:deskcolor="#c6c6c6" /><metadata
     id="metadata3771"><rdf:RDF><cc:Work
         rdf:about=""><dc:format>image/svg+xml</dc:format><dc:type
           rdf:resource="http://purl.org/dc/dcmitype/StillImage" /></cc:Work></rdf:RDF></metadata><g
     inkscape:label="Calque 1"
     inkscape:groupmode="layer"
     id="layer1"
     transform="translate(-20.521716,-9.836287)"><g
       id="g3724"
       transform="matrix(0.67284897,0,0,0.67284897,87.083665,-1.5300377)"><path
         style="fill:#6c6d70;stroke-width:0.264583"
         d="m 26.55674,41.453881 c 0.01357,-6.57163 3.40886,-10.492422 9.086117,-10.492422 2.952451,0 4.449974,0.559054 6.252069,2.33402 1.6598,1.634811 2.430521,3.263942 2.758837,5.831558 l 0.181406,1.418704 -0.872942,-0.534603 c -0.480116,-0.294033 -1.35995,-0.664031 -1.955186,-0.822218 -0.942851,-0.250568 -1.122598,-0.422293 -1.395521,-1.333226 -0.927658,-3.096243 -5.495679,-4.22977 -8.457403,-2.098655 -1.181058,0.849833 -1.632538,2.238618 -1.632538,5.021814 v 2.561756 l -1.080105,-0.274162 c -0.748668,-0.190031 -1.357587,-0.188997 -1.984375,0.0034 l -0.904269,0.277537 z"
         id="path3730"
         inkscape:connector-curvature="0" /><path
         style="fill:#e10f46;stroke-width:0.264583"
         d="M 24.303871,61.479232 C 21.956068,60.923864 20.31367,59.7221 19.367318,57.867099 c -1.748643,-3.427625 0.0034,-8.063341 3.486286,-9.224301 1.114772,-0.371592 1.159607,-0.430004 1.451297,-1.890803 0.675287,-3.381864 4.101411,-4.892288 6.663874,-2.937801 l 0.861803,0.657329 0.378125,-0.904979 c 1.429267,-3.420719 6.149792,-5.426624 10.081061,-4.283772 1.266058,0.368053 1.85067,0.750816 3.183064,2.084043 1.762898,1.764 2.442565,3.220182 2.573221,5.51312 0.06952,1.220038 0.08615,1.240676 1.45904,1.811091 5.237252,2.175994 5.464661,9.594157 0.3708,12.095668 l -1.494935,0.734139 -11.773958,0.04179 c -6.475677,0.02299 -12.012083,-0.01453 -12.303125,-0.08339 z m 13.305348,-7.811489 0.07618,-2.296842 0.916008,0.148648 c 0.503804,0.08176 0.916006,0.04079 0.916006,-0.09103 0,-0.131821 -0.893982,-1.127691 -1.986626,-2.213044 l -1.986627,-1.973368 -2.046135,2.046134 -2.046135,2.046137 h 0.990053 0.990054 v 2.392378 2.392381 l 2.050521,-0.07728 2.05052,-0.07727 z M 87.406993,37.046875 c 0,-5.909027 0.01535,-6.085416 0.529167,-6.085416 0.418478,0 0.529166,0.176389 0.529166,0.843251 v 0.843251 l 0.727605,-0.681235 c 0.879435,-0.82339 1.644512,-1.077872 3.149695,-1.04766 2.920637,0.05862 4.775887,2.615324 4.060801,5.596143 -0.756838,3.154855 -4.8705,4.429945 -7.1735,2.223532 l -0.764601,-0.732535 v 2.563043 c 0,2.386653 -0.03642,2.563043 -0.529166,2.563043 -0.513829,0 -0.529167,-0.17639 -0.529167,-6.085417 z m 6.357273,1.401205 c 0.927045,-0.638941 1.266735,-1.125451 1.59077,-2.278322 1.109795,-3.948513 -4.692382,-6.186978 -6.447866,-2.487571 -1.196512,2.521463 0.422614,5.213263 3.137305,5.215782 0.586086,5.56e-4 1.359992,-0.201906 1.719791,-0.449889 z m -25.936438,1.275631 c -1.362647,-0.290778 -2.121562,-0.768718 -1.946215,-1.225664 0.183124,-0.477213 0.09144,-0.47751 1.243947,0.004 1.091901,0.456226 3.147322,0.522947 3.888597,0.126228 0.648232,-0.346923 1.087744,-1.167409 0.894752,-1.670336 -0.177546,-0.462673 -1.02956,-0.813265 -3.022748,-1.243815 -1.951114,-0.421462 -2.587421,-0.864991 -2.789978,-1.944714 -0.209664,-1.117605 0.178707,-1.8817 1.233728,-2.427273 0.95572,-0.494221 3.292014,-0.547462 4.631068,-0.105534 0.822211,0.271354 0.898027,0.363283 0.570079,0.691231 -0.291682,0.291681 -0.544068,0.315208 -1.102757,0.102795 -1.34543,-0.511531 -3.02724,-0.343577 -3.74479,0.373975 -0.357188,0.357188 -0.649433,0.773906 -0.649433,0.926042 0,0.623321 1.10224,1.304899 2.556015,1.580528 1.958908,0.371402 2.753725,0.777699 3.249583,1.661131 0.490641,0.874136 0.178131,1.926006 -0.778515,2.6204 -0.76181,0.552968 -2.883294,0.819058 -4.233333,0.53097 z m 9.949989,-0.118071 c -1.814105,-0.54761 -2.131769,-1.290964 -2.231954,-5.222935 -0.0845,-3.316387 -0.07031,-3.421246 0.463021,-3.421246 0.524007,0 0.550193,0.139146 0.550193,2.923555 0,2.121435 0.112366,3.140847 0.409549,3.715534 1.000556,1.934866 4.427849,1.656499 5.299836,-0.430456 0.240192,-0.574861 0.376031,-1.858834 0.376031,-3.554302 0,-2.477942 0.03517,-2.654331 0.529167,-2.654331 0.507786,0 0.529167,0.176389 0.529167,4.365625 0,4.189235 -0.02138,4.365624 -0.529167,4.365624 -0.397253,0 -0.529167,-0.176389 -0.529167,-0.707578 v -0.707579 l -0.635886,0.597383 c -0.349737,0.32856 -1.093877,0.703662 -1.653646,0.833558 -1.238829,0.287476 -1.290973,0.285395 -2.577144,-0.102852 z M 55.656995,33.739584 v -5.953125 h 4.101041 c 3.924652,0 4.101042,0.02276 4.101042,0.529166 0,0.503035 -0.17639,0.529167 -3.571875,0.529167 h -3.571875 v 2.248958 2.248959 h 3.175 c 2.645833,0 3.175,0.06614 3.175,0.396875 0,0.330729 -0.529167,0.396875 -3.175,0.396875 h -3.175 v 2.381249 2.38125 h 3.704167 c 3.116204,0 3.704166,0.063 3.704166,0.396875 0,0.336242 -0.646758,0.396875 -4.233333,0.396875 h -4.233333 z"
         id="path3728"
         inkscape:connector-curvature="0" /><path
         style="fill:#096fb2;stroke-width:0.264583"
         d="m 85.951785,66.760228 c -1.311841,-0.173992 -3.600463,-0.881721 -4.336489,-1.341009 -0.379828,-0.237016 -0.719902,-0.446672 -0.755727,-0.465904 -0.03582,-0.01924 0.294982,-0.699839 0.735116,-1.512464 l 0.800246,-1.477497 1.232106,0.688639 c 1.660154,0.927878 5.046331,1.15598 6.552242,0.441378 1.123264,-0.533025 1.974638,-2.036456 1.984404,-3.504232 l 0.0058,-0.87336 -0.859896,0.638384 c -3.261254,2.421141 -8.688086,1.121796 -10.548913,-2.525729 -0.704813,-1.381545 -0.912046,-3.501207 -0.507267,-5.18851 0.413906,-1.725356 2.036286,-3.604001 3.836204,-4.442153 2.369944,-1.103593 6.292093,-0.692759 7.516955,0.787381 0.54235,0.655394 0.827489,0.533085 0.827489,-0.354944 v -0.79375 h 1.866985 1.866984 l -0.08105,7.606771 c -0.07678,7.206596 -0.11109,7.662447 -0.652129,8.665104 -1.578851,2.92594 -5.005956,4.245705 -9.483084,3.651895 z M 90.53177,56.61926 c 0.973074,-0.593267 1.638239,-1.904254 1.636733,-3.225866 -0.004,-3.551446 -5.283744,-4.863179 -7.33132,-1.821455 -1.124257,1.670111 -0.628862,4.034261 1.061302,5.064813 1.162772,0.708985 3.455918,0.700325 4.633285,-0.01749 z M 58.1159,61.239972 c -0.903176,-0.198011 -2.236539,-0.661225 -2.963026,-1.029364 l -1.320888,-0.669345 0.687187,-1.523757 c 0.377952,-0.838065 0.712568,-1.556885 0.74359,-1.597377 0.03102,-0.04049 0.650793,0.224923 1.37727,0.589812 2.812182,1.412478 6.85673,1.6202 8.136538,0.41788 0.877797,-0.824648 0.882136,-1.919427 0.01032,-2.605195 -0.362825,-0.285399 -1.642747,-0.777502 -2.84427,-1.093566 -4.749398,-1.249338 -5.923383,-1.824405 -7.006939,-3.432296 -0.706951,-1.049041 -0.819367,-3.234397 -0.236284,-4.593283 0.482018,-1.12335 1.892456,-2.437337 3.206549,-2.987273 1.508125,-0.631135 4.079047,-0.893272 6.1771,-0.629831 1.868672,0.234639 4.803108,1.188427 4.803108,1.56117 0,0.116956 -0.293984,0.877403 -0.653301,1.689877 l -0.653299,1.477227 -1.397222,-0.630743 c -3.469246,-1.566121 -7.61492,-0.850757 -7.61492,1.314009 0,1.296582 0.915279,1.782696 5.751984,3.054934 2.517026,0.662075 4.276103,1.71944 4.953671,2.977613 0.721815,1.340329 0.487297,4.048474 -0.457903,5.287693 -1.870319,2.452115 -6.146303,3.419998 -10.699263,2.421815 z m 64.52128,0.131541 c -1.43778,-0.285901 -2.60181,-0.956792 -3.31108,-1.908339 -0.79134,-1.061646 -0.77871,-3.464947 0.0241,-4.59045 1.0187,-1.428138 2.17827,-1.807551 5.82604,-1.906283 3.22148,-0.08719 3.24115,-0.09158 3.24115,-0.723429 0,-0.349639 -0.34743,-1.024538 -0.77205,-1.499775 -0.73887,-0.826942 -0.85541,-0.864071 -2.71198,-0.864071 -1.47494,0 -2.22186,0.14087 -3.11612,0.587701 -0.6469,0.323236 -1.19813,0.561361 -1.22494,0.529167 -0.0268,-0.0322 -0.3611,-0.680369 -0.74285,-1.440387 l -0.69409,-1.381852 0.7319,-0.378479 c 2.70064,-1.396553 7.2597,-1.621065 9.62886,-0.474173 1.42761,0.691089 2.46309,2.053085 2.84998,3.748648 0.14943,0.654844 0.27459,3.244454 0.27815,5.754688 l 0.006,4.564062 h -1.98437 -1.98438 v -0.946393 -0.946396 l -0.80404,0.804045 c -0.74344,0.743437 -1.24981,0.922462 -3.42929,1.212403 -0.3638,0.0484 -1.17897,-0.01492 -1.81148,-0.140687 z m 4.46458,-3.079684 c 1.02294,-0.705033 1.29816,-1.188932 1.30723,-2.298396 l 0.008,-1.02948 -2.30668,0.143907 c -2.08827,0.130283 -2.36475,0.211423 -2.92002,0.856964 -0.69386,0.806667 -0.61093,1.568786 0.25192,2.314863 0.70577,0.610262 2.78133,0.617149 3.65913,0.01214 z m 14.01605,3.075924 c -1.94073,-0.389131 -3.27521,-1.67181 -3.71582,-3.571563 -0.13239,-0.570822 -0.24355,-2.496373 -0.24702,-4.279003 l -0.006,-3.241146 h -1.05834 -1.05833 v -1.587499 -1.5875 h 1.05833 1.05834 v -1.852084 -1.852083 h 2.11666 2.11667 v 1.852083 1.852084 h 1.85208 1.85209 v 1.5875 1.587499 h -1.85209 -1.85208 v 3.439584 c 0,3.086806 0.0543,3.493857 0.52917,3.96875 0.58674,0.58674 2.48278,0.742463 2.79954,0.22993 0.10486,-0.169669 0.45531,0.365319 0.80936,1.23557 0.34344,0.844145 0.62443,1.564881 0.62443,1.601634 0,0.142407 -1.7714,0.606259 -2.77812,0.727469 -0.58209,0.07008 -1.59394,0.02003 -2.24856,-0.111225 z m 12.34337,-0.0024 c -1.60169,-0.255733 -3.09348,-1.224124 -3.91067,-2.538598 -0.5995,-0.964327 -0.63175,-1.25826 -0.7132,-6.500103 l -0.0853,-5.490104 h 2.00353 2.00353 v 4.241831 c 0,4.573725 0.22615,5.649349 1.35384,6.439215 0.89758,0.628687 2.90377,0.564346 3.77514,-0.121076 1.32914,-1.045607 1.48561,-1.710558 1.48561,-6.313606 v -4.246473 h 2.11666 2.11667 v 7.276042 7.276041 h -1.98438 -1.98437 v -0.94956 -0.949563 l -0.78703,0.662241 c -1.29664,1.091052 -3.31348,1.545156 -5.39003,1.213604 z m 31.34281,-0.01074 c -4.13622,-0.686605 -6.58214,-3.7235 -6.33004,-7.859453 0.12377,-2.030564 0.66782,-3.316714 1.97026,-4.657797 1.41967,-1.461788 2.84108,-2.070698 5.1567,-2.209051 4.63392,-0.276868 7.80201,2.29322 8.10858,6.578028 l 0.1311,1.832184 h -5.5918 c -5.53075,0 -5.5918,0.0062 -5.5918,0.564071 0,0.78876 1.68209,2.290477 2.80064,2.500318 1.4623,0.27433 3.50533,-0.02191 4.32365,-0.626917 l 0.74035,-0.547362 1.13139,1.152797 1.13138,1.1528 -0.76422,0.67178 c -1.43251,1.259213 -4.56664,1.888326 -7.21619,1.448501 z m 4.99675,-8.987224 c 0,-0.890736 -0.96436,-1.996308 -2.15789,-2.473862 -1.37748,-0.551159 -2.85595,-0.346281 -3.91169,0.54206 -0.75317,0.633756 -1.43828,2.033971 -1.14076,2.331487 0.0851,0.08513 1.74228,0.154784 3.68256,0.154784 3.40505,0 3.52778,-0.01929 3.52778,-0.554469 z M 72.854911,54.1125 v -7.276042 h 1.984375 1.984374 v 7.276042 7.276041 h -1.984374 -1.984375 z m 27.516669,0 v -7.276042 h 1.98437 c 1.94028,0 1.98438,0.01471 1.98438,0.661459 0,0.681148 0.60413,0.917739 0.94306,0.369323 0.40711,-0.658709 2.39378,-1.283842 4.09822,-1.289555 2.93768,-0.0098 5.09085,1.467149 5.81385,3.988094 0.14155,0.493567 0.25737,3.130603 0.25737,5.860079 v 4.962683 h -1.98438 -1.98437 l -0.002,-4.034896 c -0.002,-5.626054 -0.42888,-6.836544 -2.55095,-7.234647 -1.64809,-0.309181 -3.0232,0.330004 -3.73143,1.73446 -0.54237,1.075561 -0.59531,1.552006 -0.59531,5.357813 l 1.1e-4,4.17727 h -2.11667 -2.11666 z m 67.46874,0 v -7.276042 h 1.98438 1.98437 v 0.834758 c 0,0.781481 0.0299,0.807738 0.46778,0.411422 0.74963,-0.6784 2.76591,-1.498645 3.69941,-1.504953 l 0.8599,-0.0058 v 1.852083 1.852083 h -1.1515 c -1.36557,0 -2.75709,0.829469 -3.34559,1.994252 -0.28761,0.569243 -0.42075,1.924881 -0.48627,4.951061 l -0.0902,4.167187 h -1.96113 -1.96113 z M 73.516369,44.150186 c -0.834252,-0.501375 -1.173128,-1.081003 -1.182211,-2.022108 -0.01272,-1.318537 0.970788,-2.170786 2.505128,-2.170786 3.22984,0 3.435421,4.024519 0.224443,4.393813 -0.560007,0.06441 -1.256318,-0.02601 -1.54736,-0.200919 z"
         id="path3726"
         inkscape:connector-curvature="0" /></g><g
       id="g515"
       transform="matrix(0.88724121,0,0,0.88724121,9.1386796,4.3674014)"
       style="fill:#ffffff"><polygon
         points="42.0005,42.7734 41.9919,42.7734 41.9919,45.0751 41.5547,45.0751 41.5547,42.0657 42.1178,42.0657 42.9563,44.3083 42.9649,44.3083 42.9649,42.0657 43.402,42.0657 43.402,45.0751 42.839,45.0751 "
         fill="#222221"
         id="polygon445"
         style="fill:#ffffff" /><g
         id="g451"
         style="fill:#ffffff"><path
           d="m 50.1107,43.5581 c 0,-1.0114 -0.2173,-1.188 -0.4927,-1.188 -0.2754,0 -0.4939,0.1766 -0.4939,1.188 0,1.036 0.2185,1.2138 0.4939,1.2138 0.2754,0 0.4927,-0.1778 0.4927,-1.2138 m -1.4485,0.0123 c 0,-1.0743 0.2914,-1.5633 0.9558,-1.5633 0.6644,0 0.9545,0.489 0.9545,1.5633 0,1.0743 -0.2902,1.5646 -0.9545,1.5646 -0.6643,0 -0.9558,-0.4902 -0.9558,-1.5646"
           fill="#222221"
           id="path447"
           style="fill:#ffffff" /><path
           d="m 56.6638,43.4068 c 0.2951,0 0.4618,-0.1864 0.4618,-0.4902 0,-0.3198 -0.1334,-0.4878 -0.4371,-0.4878 h -0.3927 v 0.978 z m -0.8299,-1.3411 h 1.02 c 0.4051,0 0.7335,0.2112 0.7335,0.7756 0,0.3877 -0.1667,0.6878 -0.4816,0.7384 v 0.0074 c 0.2865,0.0296 0.4372,0.1939 0.4532,0.615 0.0037,0.195 0.0087,0.4309 0.0161,0.6112 0.0086,0.1482 0.0765,0.2198 0.137,0.2618 H 57.191 c -0.0457,-0.0556 -0.0654,-0.1469 -0.0778,-0.2655 -0.016,-0.1816 -0.0123,-0.3495 -0.0197,-0.5693 -0.0074,-0.3284 -0.105,-0.4717 -0.4211,-0.4717 h -0.3766 v 1.3065 h -0.4619 z"
           fill="#222221"
           id="path449"
           style="fill:#ffffff" /></g><polygon
         points="62.8598,42.0657 63.581,42.0657 64.091,44.2959 64.0996,44.2959 64.601,42.0657 65.306,42.0657 65.306,45.0751 64.8689,45.0751 64.8689,42.5721 64.8603,42.5721 64.2774,45.0751 63.8884,45.0751 63.3056,42.5721 63.297,42.5721 63.297,45.0751 62.8598,45.0751 "
         fill="#222221"
         id="polygon453"
         style="fill:#ffffff" /><path
         d="m 71.7964,43.9539 -0.3322,-1.4831 h -0.0074 l -0.3445,1.4831 z m -0.615,-1.8882 h 0.5903 l 0.7619,3.0094 H 72.052 l -0.1791,-0.7372 h -0.8458 l -0.1865,0.7372 H 70.359 Z"
         fill="#222221"
         id="path455"
         style="fill:#ffffff" /><polygon
         points="78.0326,42.7734 78.0252,42.7734 78.0252,45.0751 77.588,45.0751 77.588,42.0657 78.1499,42.0657 78.9883,44.3083 78.997,44.3083 78.997,42.0657 79.4341,42.0657 79.4341,45.0751 78.871,45.0751 "
         fill="#222221"
         id="polygon457"
         style="fill:#ffffff" /><path
         d="m 85.225,44.7133 h 0.3804 c 0.3815,0 0.5384,-0.2618 0.5384,-1.1422 0,-0.8484 -0.1371,-1.1423 -0.5384,-1.1423 H 85.225 Z m -0.4618,-2.6476 h 0.8212 c 0.9076,0 1.0212,0.6162 1.0212,1.5054 0,0.8892 -0.1136,1.504 -1.0212,1.504 h -0.8212 z"
         fill="#222221"
         id="path459"
         style="fill:#ffffff" /><rect
         x="91.846603"
         y="42.0662"
         width="0.4619"
         height="3.0093"
         fill="#222221"
         id="rect461"
         style="fill:#ffffff" /><polygon
         points="98.079,44.67 99.2126,44.67 99.2126,45.0751 97.6172,45.0751 97.6172,42.0657 99.1805,42.0657 99.1805,42.4708 98.079,42.4708 98.079,43.3055 99.115,43.3055 99.115,43.7094 98.079,43.7094 "
         fill="#222221"
         id="polygon463"
         style="fill:#ffffff" /><g
         id="g469"
         style="fill:#ffffff"><path
           d="m 46.5683,14.3317 h 2.0239 v 7.845 c 0,2.4907 -0.7804,3.6749 -3.4254,3.6749 -2.6747,0 -3.4551,-1.1842 -3.4551,-3.6749 v -7.845 h 2.0239 v 7.6647 c 0,1.0805 0.0716,2.161 1.4447,2.161 1.3151,0 1.388,-1.0805 1.388,-2.161 z"
           fill="#222221"
           id="path465"
           style="fill:#ffffff" /><path
           d="m 54.5186,14.3317 h 2.0239 v 11.2507 h -2.1104 l -1.5756,-4.0059 c -0.5347,-1.3349 -0.9681,-2.6993 -1.4448,-4.4701 h -0.0296 c 0.0728,0.9298 0.1593,2.0708 0.2173,3.2106 0.0568,1.125 0.1013,2.2498 0.1013,3.1501 v 2.1153 H 49.6768 V 14.3317 h 2.0955 l 1.5757,4.0948 c 0.5198,1.3052 0.9533,2.6401 1.4447,4.4701 h 0.0297 c -0.0729,-1.02 -0.1445,-2.1153 -0.2026,-3.1945 -0.058,-1.0805 -0.1012,-2.1598 -0.1012,-3.165 z"
           fill="#222221"
           id="path467"
           style="fill:#ffffff" /></g><rect
         x="57.6563"
         y="14.3317"
         width="2.0227001"
         height="11.2507"
         fill="#222221"
         id="rect471"
         style="fill:#ffffff" /><path
         d="m 65.3888,14.3317 h 2.1684 L 65.2147,25.5824 H 62.5128 L 60.1135,14.3317 h 2.1684 l 1.2707,7.2152 c 0.116,0.6298 0.1889,1.2743 0.2457,1.9202 0.0296,0.3001 0.0877,0.615 0.0877,0.9298 h 0.0284 c 0,-0.3148 0.058,-0.6297 0.0864,-0.9298 0.058,-0.6459 0.1309,-1.2904 0.2457,-1.9202 z"
         fill="#222221"
         id="path473"
         style="fill:#ffffff" /><polygon
         points="68.8875,20.1214 68.8875,24.7113 72.934,24.7113 72.934,25.5818 67.9477,25.5818 67.9477,14.3312 72.8624,14.3312 72.8624,15.2018 68.8875,15.2018 68.8875,19.2521 72.5006,19.2521 72.5006,20.1214 "
         fill="#222221"
         id="polygon475"
         style="fill:#ffffff" /><g
         id="g481"
         style="fill:#ffffff"><path
           d="m 74.3802,19.4174 h 1.6472 c 0.3186,0 1.9079,-0.121 1.9079,-2.1301 0,-1.651 -0.7224,-2.0856 -2.1968,-2.0856 h -1.3583 z m 0,0.8693 v 5.295 H 73.4404 V 14.3324 h 2.0956 c 1.9807,0 3.339,0.5988 3.339,2.8796 0,1.0953 -0.4483,2.3845 -1.5893,2.6401 v 0.0297 c 1.2571,0.3296 1.43,1.3348 1.4448,2.745 0.0296,0.5396 -0.0432,2.5203 0.4915,2.8203 v 0.1346 h -1.0262 c -0.405,-0.9446 -0.3754,-2.8648 -0.4334,-3.6896 -0.1013,-1.5004 -1.1855,-1.6054 -2.4141,-1.6054 z"
           fill="#222221"
           id="path477"
           style="fill:#ffffff" /><path
           d="m 82.7781,19.4467 c 1.5904,0.6903 2.7759,1.2004 2.7759,3.2403 0,1.935 -1.2151,3.1649 -3.1081,3.1649 -1.9807,0 -3.0204,-1.4546 -2.9772,-3.4502 h 0.9249 c -0.0148,1.4102 0.5495,2.5797 2.0375,2.5797 1.3163,0 2.1832,-0.8694 2.1832,-2.2648 0,-1.6942 -1.1855,-1.9646 -2.429,-2.4746 -1.4595,-0.6001 -2.5005,-1.2756 -2.5005,-3.0747 0,-1.8301 1.0558,-3.1057 2.8191,-3.1057 1.6905,0 2.8044,1.2151 2.7599,2.9846 h -0.9101 c 0.0581,-1.2447 -0.6507,-2.114 -1.8646,-2.114 -1.2287,0 -1.8646,0.9446 -1.8646,2.1746 0,1.1101 0.347,1.5447 1.3151,1.9794 z"
           fill="#222221"
           id="path479"
           style="fill:#ffffff" /></g><rect
         x="86.392303"
         y="14.3316"
         width="0.93970001"
         height="11.2507"
         fill="#222221"
         id="rect483"
         style="fill:#ffffff" /><polygon
         points="87.8812,15.2016 87.8812,14.3311 93.7343,14.3311 93.7343,15.2016 91.2782,15.2016 91.2782,25.5817 90.3385,25.5817 90.3385,15.2016 "
         fill="#222221"
         id="polygon485"
         style="fill:#ffffff" /><path
         d="m 95.4546,13.5224 1.6053,-2.0856 h 1.1274 L 96.193,13.5224 Z M 94.1111,25.5818 V 14.3312 h 4.9146 v 0.8706 h -3.9749 v 4.0503 h 3.6131 v 0.8693 h -3.6131 v 4.5899 h 4.0466 v 0.8705 z"
         fill="#222221"
         id="path487"
         style="fill:#ffffff" /><path
         d="m 42.4985,39.7293 h 1.1497 c 0.5445,0 1.1928,0 1.6929,-0.2395 1.4732,-0.6903 1.546,-3.1662 1.546,-4.5307 0,-1.425 0.0297,-3.6749 -1.4274,-4.4849 -0.5755,-0.3149 -1.4732,-0.2852 -2.1363,-0.2544 h -0.8249 z m -0.957,-10.3801 h 1.9733 c 1.2521,0 2.3709,0.0754 3.2699,1.0645 0.7359,0.9001 1.0607,2.5808 1.0607,3.7057 0,1.2744 0.0284,2.9698 -0.4273,4.1849 -0.6779,1.935 -1.8708,2.2956 -3.7119,2.2956 h -2.1647 z"
         fill="#222221"
         id="path489"
         style="fill:#ffffff" /><polygon
         points="50.3191,35.1389 50.3191,39.7288 54.4435,39.7288 54.4435,40.5994 49.3621,40.5994 49.3621,29.3488 54.3694,29.3488 54.3694,30.2193 50.3191,30.2193 50.3191,34.2696 54.0014,34.2696 54.0014,35.1389 "
         fill="#222221"
         id="polygon491"
         style="fill:#ffffff" /><g
         id="g499"
         style="fill:#ffffff"><path
           d="m 61.0409,34.1046 h 1.6201 c 0.6767,-0.0457 1.2077,-0.4952 1.2077,-1.6201 0,-1.2607 -0.5149,-1.4707 -1.2966,-1.4855 h -1.5312 z m 0,1.6497 v 4.8456 H 58.9787 V 29.3493 h 3.9033 c 1.7819,0 3.1365,0.6298 3.1365,2.7005 0,1.23 -0.3087,2.5191 -1.6929,2.7143 v 0.0308 c 1.2212,0.1642 1.5905,0.9594 1.5905,2.0399 0,0.4644 -0.0593,3.2242 0.442,3.5552 v 0.2099 h -2.2684 c -0.2506,-0.7199 -0.2062,-2.1005 -0.221,-2.85 -0.0148,-0.6903 0,-1.6349 -0.7076,-1.8461 -0.5594,-0.1642 -1.1632,-0.1495 -1.7522,-0.1495 z"
           fill="#222221"
           id="path493"
           style="fill:#ffffff" /><path
           d="m 69.731,36.7291 c 0,0.9298 0.0728,2.445 1.4867,2.445 1.4732,0 1.488,-1.5448 1.488,-2.6253 v -2.8796 c 0,-0.9002 0.0432,-2.8945 -1.488,-2.8945 -1.6201,0 -1.4867,1.9646 -1.4867,2.8352 z m -2.1215,-2.6549 c 0.0889,-2.8648 0.31,-4.995 3.6082,-4.995 3.2982,0 3.5206,2.1302 3.6082,4.995 v 1.6053 c 0,2.9994 -0.221,5.1901 -3.6082,5.1901 -3.3872,0 -3.6082,-2.1907 -3.6082,-5.1901 z"
           fill="#222221"
           id="path495"
           style="fill:#ffffff" /><path
           d="m 81.3652,29.3492 h 2.0621 v 7.845 c 0,2.4907 -0.7952,3.6749 -3.4909,3.6749 -2.724,0 -3.5192,-1.1842 -3.5192,-3.6749 v -7.845 h 2.0609 v 7.6647 c 0,1.0805 0.0741,2.1598 1.4732,2.1598 1.3398,0 1.4139,-1.0793 1.4139,-2.1598 z"
           fill="#222221"
           id="path497"
           style="fill:#ffffff" /></g><polygon
         points="87.1241,35.4847 87.1241,38.9496 90.8644,38.9496 90.8644,40.5994 85.0619,40.5994 85.0619,29.3488 90.8644,29.3488 90.8644,30.9997 87.1241,30.9997 87.1241,33.8349 90.5705,33.8349 90.5705,35.4847 "
         fill="#222221"
         id="polygon501"
         style="fill:#ffffff" /><path
         d="M 97.1239,29.3492 H 99.186 V 40.5999 H 97.0362 L 95.4309,36.594 C 94.8851,35.2592 94.443,33.8947 93.9577,32.1239 h -0.0296 c 0.0741,0.9298 0.1617,2.0708 0.221,3.2106 0.0593,1.125 0.1037,2.2499 0.1037,3.1501 v 2.1153 H 92.1907 V 29.3492 h 2.135 l 1.6053,4.0948 c 0.5297,1.3052 0.9718,2.6401 1.4732,4.4701 h 0.0296 c -0.0741,-1.02 -0.1482,-2.1153 -0.2062,-3.1945 -0.0593,-1.0805 -0.1037,-2.1598 -0.1037,-3.165 z"
         fill="#222221"
         id="path503"
         style="fill:#ffffff" /><path
         d="m 40.7586,16.6567 c 0,0 -0.4976,-2.4856 -3.0612,-2.4856 -2.561,0 -3.8786,0.0407 -3.8786,0.0407 v 11.1864 c 0,0 3.2032,-3.8947 6.9398,-0.9113 z"
         fill="#222221"
         id="path505"
         style="fill:#ffffff" /><path
         d="m 40.759,29.4002 c 0,0 -5.0888,-3.5033 -6.9398,2.8525 v 12.9276 l 4.2701,0.037 c 0,0 2.135,-0.1445 2.7055,-2.4561 C 40.759,42.797 40.759,29.4002 40.759,29.4002"
         fill="#222221"
         id="path507"
         style="fill:#ffffff" /><path
         d="m 29.299,14.1316 -7.7585,0.0396 0.0358,16.0122 c 0,0 0.1853,3.6341 2.5142,4.4393 H 24.088 c 0,0 0.0099,0.0024 0.0235,0.0074 0.2976,0.0988 0.6273,0.1555 0.999,0.1494 0.1617,0.0098 0.3383,0.0111 0.526,0.0037 0.7804,0.037 3.4255,-0.1729 3.6984,-4.6393 C 29.299,30.1056 29.299,14.1316 29.299,14.1316"
         fill="#222221"
         id="path509"
         style="fill:#ffffff" /><path
         d="m 17.4065,33.8018 c 0,0 0.0037,0.2494 0.026,0.3149 0,0.0098 -0.3125,0.0185 -0.3125,0.0185 l -0.0345,-0.1593 0.0185,-0.1556 z"
         fill="#222221"
         id="path511"
         style="fill:#ffffff" /><path
         d="m 29.2803,41.8326 0.0086,-3.2797 -0.0444,0.0543 c -0.2532,0.0914 -3.2637,1.1324 -6.2632,0.4396 0.0075,-0.0074 0.0136,-0.0123 0.0173,-0.0123 C 22.869,39.011 22.7418,38.9826 22.6183,38.953 21.8058,38.7258 21.0031,38.3627 20.2647,37.8095 17.7604,35.8079 17.1665,32.0836 17.0269,30.3276 17.0232,26.323 16.9491,14.171 16.9491,14.171 c 0,0 -2.0646,0.195 -2.7401,2.7401 0.0346,-0.0383 -0.0358,25.2907 -0.0358,25.2907 0,0 0.3556,2.8192 2.8463,3.0155 l 12.2793,0.0383 z"
         fill="#222221"
         id="path513"
         style="fill:#ffffff" /></g></g></svg>
