<?xml version="1.0" encoding="UTF-8" standalone="no"?>
<svg
   version="1.1"
   width="974.5744"
   height="250.95506"
   id="svg51"
   sodipodi:docname="esup-signature2.svg"
   inkscape:version="1.4 (e7c3feb100, 2024-10-09)"
   xmlns:inkscape="http://www.inkscape.org/namespaces/inkscape"
   xmlns:sodipodi="http://sodipodi.sourceforge.net/DTD/sodipodi-0.dtd"
   xmlns="http://www.w3.org/2000/svg"
   xmlns:svg="http://www.w3.org/2000/svg">
  <defs
     id="defs51">
    <inkscape:path-effect
       effect="powerclip"
       message=""
       id="path-effect55"
       is_visible="true"
       lpeversion="1"
       inverse="true"
       flatten="false"
       hide_clip="false" />
    <inkscape:path-effect
       effect="powerclip"
       message=""
       id="path-effect54"
       is_visible="true"
       lpeversion="1"
       inverse="true"
       flatten="false"
       hide_clip="false" />
    <inkscape:path-effect
       effect="powerclip"
       message=""
       id="path-effect53"
       is_visible="true"
       lpeversion="1"
       inverse="true"
       flatten="false"
       hide_clip="false" />
    <inkscape:path-effect
       effect="powerclip"
       message=""
       id="path-effect52"
       is_visible="true"
       lpeversion="1"
       inverse="true"
       flatten="false"
       hide_clip="false" />
    <inkscape:path-effect
       effect="powerclip"
       message=""
       id="path-effect51"
       is_visible="true"
       lpeversion="1"
       inverse="true"
       flatten="false"
       hide_clip="false" />
    <clipPath
       clipPathUnits="userSpaceOnUse"
       id="clipPath51">
      <path
         d="m 553.98892,100.38504 c 5.35755,1.92063 8.45837,4.91674 11,10 0.5284,6.2188 0.72493,11.73371 -3,17 -4.5847,4.24085 -8.4478,5.48027 -14.57813,5.41016 -4.41145,-0.74711 -7.40675,-3.21074 -10.42187,-6.41016 -2.64458,-4.8484 -2.70564,-10.58423 -2,-16 3.97216,-8.24988 10.18723,-11.297392 19,-10 z"
         fill="#040404"
         id="path51"
         style="display:none;fill:#040404;fill-opacity:1" />
      <path
         id="lpe_path-effect51"
         style="fill:#040404;fill-opacity:1"
         class="powerclip"
         d="m 517.98892,84.810833 h 64.23948 v 79.574207 h -64.23948 z m 36,15.574207 c -8.81277,-1.297392 -15.02784,1.75012 -19,10 -0.70564,5.41577 -0.64458,11.1516 2,16 3.01512,3.19942 6.01042,5.66305 10.42187,6.41016 6.13033,0.0701 9.99343,-1.16931 14.57813,-5.41016 3.72493,-5.26629 3.5284,-10.7812 3,-17 -2.54163,-5.08326 -5.64245,-8.07937 -11,-10 z" />
    </clipPath>
    <clipPath
       clipPathUnits="userSpaceOnUse"
       id="clipPath52">
      <path
         d="m 381.17642,101.01004 c 3.8103,2.07902 5.81885,4.47078 7.8125,8.375 0,0.99 0,1.98 0,3 -9.57,0 -19.14,0 -29,0 1.03999,-6.23992 1.44102,-7.18318 6,-11 4.76855,-3.337985 10.08669,-2.654692 15.1875,-0.375 z"
         fill="#080808"
         id="path52"
         style="display:none" />
      <path
         id="lpe_path-effect52"
         class="powerclip"
         d="m 342.47658,85.294539 h 61.51234 v 62.588191 h -61.51234 z m 38.69984,15.715501 c -5.10081,-2.279692 -10.41895,-2.962985 -15.1875,0.375 -4.55898,3.81682 -4.96001,4.76008 -6,11 9.86,0 19.43,0 29,0 0,-1.02 0,-2.01 0,-3 -1.99365,-3.90422 -4.0022,-6.29598 -7.8125,-8.375 z" />
    </clipPath>
    <clipPath
       clipPathUnits="userSpaceOnUse"
       id="clipPath53">
      <path
         d="m 456.98892,221.38504 c 3.5,1.6875 3.5,1.6875 6,4 0.78375,0.66 1.5675,1.32 2.375,2 2.61996,4.83685 2.32465,9.62872 1.625,15 -2.11586,4.93702 -5.06531,7.18955 -9.85547,9.30469 -4.16842,1.35151 -7.85697,1.56654 -12.0625,-0.0352 -4.63896,-2.42334 -7.75486,-5.61519 -10.08203,-10.26953 -0.65337,-5.10562 -0.78606,-9.57504 2.1875,-13.9375 5.20897,-6.73032 11.87175,-7.0322 19.8125,-6.0625 z"
         fill="#050505"
         id="path53"
         style="display:none" />
      <path
         id="lpe_path-effect53"
         class="powerclip"
         d="m 419.51434,207.03317 h 62.81439 v 79.85067 h -62.81439 z m 37.47458,14.35187 v -4e-5 c -7.94075,-0.9697 -14.60353,-0.66782 -19.8125,6.0625 -2.97356,4.36246 -2.84087,8.83188 -2.1875,13.9375 2.32717,4.65434 5.44307,7.84619 10.08203,10.26953 4.20553,1.60174 7.89408,1.38671 12.0625,0.0352 4.79016,-2.11514 7.73961,-4.36767 9.85547,-9.30469 0.69965,-5.37128 0.99496,-10.16315 -1.625,-15 -0.8075,-0.68 -1.59125,-1.34 -2.375,-2 -2.5,-2.3125 -2.5,-2.3125 -6,-4 z" />
    </clipPath>
    <clipPath
       clipPathUnits="userSpaceOnUse"
       id="clipPath54">
      <path
         d="m 577.36392,240.13504 c 1.24717,0.0271 1.24717,0.0271 2.51953,0.0547 2.03566,0.0468 4.07072,0.11853 6.10547,0.19531 0.0593,1.4383 0.1016,2.87731 0.13672,4.31641 0.0381,1.20185 0.0381,1.20185 0.0769,2.42797 -0.21362,2.25562 -0.21362,2.25562 -2.40112,5.19312 -5.09561,3.73678 -9.55666,4.90925 -15.8125,4.0625 -4.56944,-2.13889 -4.56944,-2.13889 -6,-5 -0.4375,-3.375 -0.4375,-3.375 0,-7 4.93362,-4.46789 9.08718,-4.51074 15.375,-4.25 z"
         fill="#0e0e0e"
         id="path54"
         style="display:none" />
      <path
         id="lpe_path-effect54"
         class="powerclip"
         d="m 546.33252,206.78571 h 54.75914 v 62.12843 h -54.75914 z m 31.0314,33.34933 v 1e-5 c -6.28782,-0.26074 -10.44138,-0.21789 -15.375,4.25 -0.4375,3.625 -0.4375,3.625 0,7 1.43056,2.86111 1.43056,2.86111 6,5 6.25584,0.84675 10.71689,-0.32572 15.8125,-4.0625 2.1875,-2.9375 2.1875,-2.9375 2.40112,-5.19312 -0.0388,-1.22612 -0.0388,-1.22612 -0.0769,-2.42797 -0.0351,-1.4391 -0.0774,-2.87811 -0.13672,-4.31641 -2.03475,-0.0768 -4.06981,-0.14851 -6.10547,-0.19531 -1.27236,-0.0276 -1.27236,-0.0276 -2.51953,-0.0547 z" />
    </clipPath>
    <clipPath
       clipPathUnits="userSpaceOnUse"
       id="clipPath55">
      <path
         d="m 778.61392,221.51004 c 4.07582,2.26434 5.76281,4.03355 8.375,7.875 0.33,1.65 0.66,3.3 1,5 -10.23,0 -20.46,0 -31,0 1.2,-7.2 1.2,-7.2 5,-11 5.68378,-3.66288 10.2272,-3.86052 16.625,-1.875 z"
         fill="#0d0e0d"
         id="path55"
         style="display:none" />
      <path
         id="lpe_path-effect55"
         class="powerclip"
         d="m 741.38244,206.96846 h 60.60652 v 61.98085 h -60.60652 z m 37.23148,14.54158 c -6.3978,-1.98552 -10.94122,-1.78788 -16.625,1.875 -3.8,3.8 -3.8,3.8 -5,11 10.54,0 20.77,0 31,0 -0.34,-1.7 -0.67,-3.35 -1,-5 -2.61219,-3.84145 -4.29918,-5.61066 -8.375,-7.875 z" />
    </clipPath>
  </defs>
  <sodipodi:namedview
     id="namedview51"
     pagecolor="#ffffff"
     bordercolor="#000000"
     borderopacity="0.25"
     inkscape:showpageshadow="2"
     inkscape:pageopacity="0.0"
     inkscape:pagecheckerboard="0"
     inkscape:deskcolor="#d1d1d1"
     inkscape:zoom="0.47005208"
     inkscape:cx="207.42382"
     inkscape:cy="-204.23269"
     inkscape:window-width="1920"
     inkscape:window-height="975"
     inkscape:window-x="0"
     inkscape:window-y="0"
     inkscape:window-maximized="1"
     inkscape:current-layer="svg51" />
  <path
     d="m 312.40872,36.50191 c -1.5715,3.339443 -3.49421,6.342499 -5.5,9.4375 -8.05716,12.8881 -13.99554,26.81579 -19.1875,41.0625 -8.43258,23.00754 -19.85867,34.93349 -42.3125,45.5 5.0439,-0.57479 9.39166,-1.67502 14.1875,-3.4375 1.1898,-0.43184 2.37961,-0.86367 3.60547,-1.30859 2.4954,-0.97567 4.84716,-1.99492 7.20703,-3.25391 -7.68423,16.52754 -17.17144,30.05603 -30,43 -0.77602,0.78891 -1.55203,1.57781 -2.35156,2.39062 -12.80693,12.23481 -33.13822,26.86143 -50.64844,30.60938 10.11215,-32.13632 33.64386,-62.51839 54,-89 0.46648,-0.61214 0.93296,-1.22429 1.41357,-1.85498 5.7875,-7.58635 11.8232,-14.77625 18.37159,-21.71924 2.31634,-2.41403 2.31634,-2.41403 4.21484,-5.42578 -3.82956,3.77948 -7.65201,7.56598 -11.46851,11.35864 -1.29469,1.28475 -2.5912,2.56768 -3.88964,3.84864 -7.70511,7.60399 -14.99757,15.22873 -21.64185,23.79272 -0.54342,0.67893 -1.08684,1.35787 -1.64673,2.05737 -14.96317,18.70458 -27.99976,38.8671 -39.35327,59.94263 -0.58104,1.07846 -1.16209,2.15692 -1.76074,3.26807 -8.51984,15.92596 -16.28861,32.08171 -23.53223,48.62646 -6.06909,13.7865 -6.06909,13.7865 -8.70703,15.10547 -2.875,0.375 -2.875,0.375 -6,0 -3.83774,-3.96658 -6.02827,-8.71424 -8.40625,-13.625 -0.40658,-0.82452 -0.81316,-1.64903 -1.23206,-2.49854 -1.72979,-3.5084 -3.4452,-7.02378 -5.16198,-10.53857 -1.25953,-2.57343 -2.52632,-5.1432 -3.79346,-7.71289 -0.38241,-0.78971 -0.76482,-1.57942 -1.15881,-2.39307 -2.03901,-4.13305 -4.07143,-7.82992 -7.24744,-11.23193 -2.2998,-0.76799 -2.2998,-0.76799 -4.6875,-0.75 -4.25761,-0.19511 -4.25761,-0.19511 -5.3125,-1.25 -0.59513,-4.24034 -0.90151,-6.65811 1.52734,-10.27344 1.75844,-1.99217 3.55775,-3.88513 5.47266,-5.72656 0.33,-0.33 0.66,-0.66 1,-1 6.71835,-0.92667 6.71835,-0.92667 9.76294,1.27466 4.31876,4.45065 7.6616,9.07287 10.79956,14.41284 0.46962,0.78294 0.93924,1.56589 1.4231,2.37256 3.6572,6.16423 6.99273,12.4376 10.0144,18.93994 0.71071,-1.42142 1.42136,-2.84287 2.13184,-4.2644 0.68216,-1.36384 1.36515,-2.72726 2.04882,-4.09034 2.36791,-4.72529 4.71422,-9.46057 7.0459,-14.20385 13.1402,-26.64675 27.35111,-53.01631 45.77344,-76.44141 1.18981,-1.57784 2.3796,-3.15569 3.5686,-4.73413 11.65134,-15.36971 24.50804,-29.98061 39.4314,-42.26587 0.50161,-0.420718 1.00321,-0.841436 1.52002,-1.274902 C 295.83015,36.50191 295.83015,36.50191 312.40872,36.50191 Z"
     fill="#1e5786"
     id="path2" />
  <path
     d="m 130.65872,0.00191019 c 1.49999,0.0086 1.49999,0.0086 3.03027,0.01733 16.65748,0.398331 30.24787,7.54334601 42.30176,18.84985281 11.12597,12.114541 17.63626,27.494566 17.48047,44.007813 -0.009,1.245234 -0.0181,2.490469 -0.0273,3.773437 -0.0174,1.411524 -0.0174,1.411524 -0.0352,2.851563 -6.95023,-0.646533 -13.38177,-2.860272 -20,-5 -0.0948,-1.50627 -0.0948,-1.50627 -0.19141,-3.042969 -0.97957,-11.98471 -4.1225,-21.905183 -13.12109,-30.457031 -11.53949,-9.318087 -24.23527,-11.829021 -38.6875,-10.5 -10.39772,2.028198 -19.68631,8.397901 -25.937498,16.875 -6.31354,9.841249 -8.156725,19.168729 -8.378906,30.679687 l -0.06297,2.731965 c -0.06507,2.862709 -0.12418,5.725506 -0.183121,8.588348 -0.04323,1.947925 -0.08684,3.895842 -0.130859,5.843754 -0.106724,4.76033 -0.208111,9.52075 -0.306641,14.28125 0.745481,-0.0174 1.490962,-0.0348 2.259033,-0.0527 0.983152,-0.0135 1.966304,-0.0271 2.979244,-0.041 0.97236,-0.0174 1.94472,-0.0348 2.94654,-0.0527 3.88212,0.202 6.410978,1.33091 9.815178,3.14648 -0.56303,3.94121 -1.67919,6.75087 -4,10 h -1.999998 l -0.73407,4.49861 c -1.27875,-0.0464 -2.82343,-0.59141 -4.14093,-0.63923 -1.70831,-0.0375 -3.416642,-0.0739 -5.124997,-0.10938 -0.83918,-0.0335 -1.678359,-0.067 -2.542969,-0.10156 -7.867169,-0.12197 -14.053157,2.43113 -20.007812,7.66797 -6.477871,7.5255 -8.602293,15.30463 -8.511719,24.99609 0.009,1.25426 0.01805,2.50852 0.02734,3.80078 0.0116,0.95262 0.0232,1.90524 0.03516,2.88672 -0.894609,0.15855 -1.789219,0.31711 -2.710937,0.48047 -11.266494,2.17402 -22.005294,5.391 -29.101563,14.96484 -6.94611,10.39023 -9.40145,18.97378 -8.1875,31.55469 2.17897,10.79107 7.63154,19.46692 16.83107,25.62103 9.299487,5.91245 17.950485,5.9829 28.672836,5.98834 1.691092,0.015 3.382169,0.0317 5.073227,0.0501 4.423861,0.0435 8.847524,0.0636 13.271561,0.0787 4.525162,0.0196 9.050114,0.0616 13.575133,0.10162 8.858658,0.0751 17.717268,0.12551 26.576168,0.16016 1.00697,2.10084 2.00536,4.20579 3,6.3125 0.55688,1.17176 1.11375,2.34352 1.6875,3.55078 1.3125,3.13677 1.3125,3.13677 1.3125,6.13677 -10.46688,0.0931 -20.93365,0.16398 -31.400858,0.20725 -4.86156,0.0208 -9.722846,0.0489 -14.584247,0.0945 -4.700883,0.0438 -9.401493,0.0675 -14.102564,0.0778 -1.783968,0.007 -3.567923,0.0216 -5.351773,0.0434 -12.75803,0.14932 -24.625906,-0.40538 -35.560556,-7.92295 -0.84562,-0.56719 -1.69125,-1.13438 -2.5625,-1.71875 -12.39549,-9.05825 -20.6781401,-21.52484 -23.43750015,-36.78125 -1.64371995,-15.84418 1.60059005,-29.94915 11.00000015,-43 7.57271,-9.01798 16.91324,-17.53602 29,-19 0.06316,-0.63164 0.126328,-1.26328 0.191406,-1.91406 1.601271,-11.6977 7.044174,-23.68049 16.414063,-31.16797 0.85207,-0.57106 1.70414,-1.14211 2.582031,-1.73047 0.859805,-0.58395 1.719609,-1.16789 2.605469,-1.76953 2.207031,-1.41797 2.207031,-1.41797 4.207031,-2.41797 0.0088,-0.88084 0.0088,-0.88084 0.01778,-1.77948 0.06442,-6.16577 0.148956,-12.33104 0.244675,-18.496403 0.03306,-2.294529 0.06115,-4.589136 0.08398,-6.883789 0.0339,-3.316902 0.08624,-6.633106 0.141845,-9.949707 0.0064,-1.00988 0.01278,-2.01976 0.01936,-3.060242 0.205681,-10.18436 2.392617,-19.810617 7.054855,-28.892883 l 1.041504,-2.042725 C 82.585279,18.215526 95.749782,7.8396552 110.91385,2.6435882 c 6.66197,-1.91820901 12.82091,-2.68819401 19.74487,-2.64160201 z"
     fill="#be172c"
     id="path3"
     sodipodi:nodetypes="cccccccccccccccccccccccccccccccccccccccccccccccccccccccccccccccccc" />
  <path
     d="m 272.40872,143.50191 c 10.91317,1.73531 19.09836,9.85932 26,18 2.40472,3.52991 4.32884,7.07252 6,11 0.33838,0.78609 0.67676,1.57217 1.02539,2.38208 2.758,6.87472 3.68136,12.92229 3.59961,20.30542 -0.008,1.04366 -0.0168,2.08731 -0.0254,3.1626 -0.40657,14.03755 -4.87377,24.87102 -14.59961,35.1499 -0.5543,0.64324 -1.10859,1.28648 -1.67969,1.94922 -8.46814,9.33926 -21.66618,14.75296 -34.14712,15.39734 -5.74181,0.16502 -11.48094,0.10423 -17.22397,0.0441 -2.11134,-0.007 -4.22268,-0.0132 -6.33403,-0.0172 -5.51561,-0.0152 -11.03078,-0.0543 -16.54622,-0.0988 -5.64468,-0.0412 -11.28942,-0.0592 -16.9342,-0.0793 -11.04511,-0.0428 -22.08991,-0.11088 -33.13477,-0.19536 0.60355,-3.85026 1.76773,-6.86101 3.5625,-10.3125 0.68256,-1.32451 0.68256,-1.32451 1.37891,-2.67578 0.34933,-0.66387 0.69867,-1.32774 1.05859,-2.01172 1.0338,-0.001 2.0676,-0.003 3.13272,-0.004 9.7968,-0.0168 19.5932,-0.0598 29.38978,-0.12777 5.0352,-0.0341 10.07011,-0.0594 15.10543,-0.0635 4.86973,-0.004 9.73879,-0.033 14.60832,-0.0779 1.84725,-0.0129 3.69458,-0.0173 5.54188,-0.0127 14.08882,0.0269 27.13978,-1.11181 38.32734,-10.78416 7.62666,-7.7682 11.86262,-18.02548 12.39453,-28.9297 -0.57189,-11.364 -5.13464,-21.98538 -13.41406,-29.80859 -4.59477,-3.67033 -9.63583,-6.04669 -15.08594,-8.19141 0.62394,-3.76119 2.34774,-6.1896 4.5625,-9.25 0.64066,-0.89203 1.28133,-1.78406 1.94141,-2.70313 0.49371,-0.67546 0.98742,-1.35093 1.49609,-2.04687 z"
     fill="#1f5786"
     id="path4" />
  <path
     d="m 561.92642,92.07254 c 7.10499,3.674114 12.34421,10.15762 14.875,17.75 0.0619,0.84563 0.12375,1.69125 0.1875,2.5625 0.0619,0.64453 0.12375,1.28906 0.1875,1.95313 0.42307,7.56244 -1.73376,14.07655 -6.5625,19.92187 -7.11201,5.75734 -12.66999,8.6015 -21.83203,8.45312 -5.41725,-0.63643 -9.34601,-3.36348 -13.79297,-6.32812 0,7.59 0,15.18 0,23 -3.96,0 -7.92,0 -12,0 0,-22.44 0,-44.88 0,-68 3.63,0 7.26,0 11,0 0.33,1.65 0.66,3.3 1,5 0.47051,-0.349336 0.94102,-0.698672 1.42578,-1.058594 0.62262,-0.455039 1.24524,-0.910078 1.88672,-1.378906 0.61488,-0.452461 1.22977,-0.904922 1.86328,-1.371094 6.11355,-3.992788 15.26605,-3.211347 21.76172,-0.503906 z"
     fill="#b8b9b8"
     id="path5"
     clip-path="url(#clipPath51)"
     inkscape:path-effect="#path-effect51"
     inkscape:original-d="m 561.92642,92.07254 c 7.10499,3.674114 12.34421,10.15762 14.875,17.75 0.0619,0.84563 0.12375,1.69125 0.1875,2.5625 0.0619,0.64453 0.12375,1.28906 0.1875,1.95313 0.42307,7.56244 -1.73376,14.07655 -6.5625,19.92187 -7.11201,5.75734 -12.66999,8.6015 -21.83203,8.45312 -5.41725,-0.63643 -9.34601,-3.36348 -13.79297,-6.32812 0,7.59 0,15.18 0,23 -3.96,0 -7.92,0 -12,0 0,-22.44 0,-44.88 0,-68 3.63,0 7.26,0 11,0 0.33,1.65 0.66,3.3 1,5 0.47051,-0.349336 0.94102,-0.698672 1.42578,-1.058594 0.62262,-0.455039 1.24524,-0.910078 1.88672,-1.378906 0.61488,-0.452461 1.22977,-0.904922 1.86328,-1.371094 6.11355,-3.992788 15.26605,-3.211347 21.76172,-0.503906 z"
     transform="matrix(1.0364888,0,0,1.0364888,-28.235906,-54.892362)" />
  <path
     d="m 465.98892,217.38504 c 0.495,0.495 0.495,0.495 1,1 0.33,-1.65 0.66,-3.3 1,-5 2.97,0 5.94,0 9,0 0.0745,6.79522 0.12879,13.5902 0.1648,20.38574 0.015,2.30831 0.0354,4.6166 0.0615,6.92481 0.0367,3.33145 0.0535,6.66252 0.0666,9.99414 0.0155,1.0202 0.031,2.0404 0.0469,3.09152 0.002,7.00007 -0.29953,14.85031 -4.88928,20.5166 -6.81855,6.5982 -15.21315,7.59133 -24.34343,7.58597 -6.59018,-0.23217 -12.45866,-2.02954 -18.10717,-5.49878 -0.66,-0.99 -1.32,-1.98 -2,-3 1.32,-1.98 2.64,-3.96 4,-6 0.66,0.26812 1.32,0.53625 2,0.8125 0.99,0.39188 1.98,0.78375 3,1.1875 0.58137,0.26426 1.16273,0.52852 1.76172,0.80078 6.82457,2.92086 13.55059,3.27061 20.67578,1.07422 2.87359,-1.24813 3.60323,-1.92973 5.5625,-4.5625 1.21548,-4.02628 1.21668,-7.1233 1,-11.3125 -0.9075,0.63937 -1.815,1.27875 -2.75,1.9375 -6.50696,4.12941 -13.7225,3.77467 -21.25,3.0625 -6.95213,-2.14683 -11.41787,-6.7988 -15,-13 -2.885,-6.0575 -3.11118,-12.8366 -1.38281,-19.3125 2.92673,-6.63049 8.59854,-11.72621 15.19531,-14.625 9.36831,-2.91499 17.01776,-1.1896 25.1875,3.9375 z"
     fill="#f7f7f7"
     id="path6"
     style="fill:#f5f5f5;fill-opacity:1"
     clip-path="url(#clipPath53)"
     inkscape:path-effect="#path-effect53"
     inkscape:original-d="m 465.98892,217.38504 c 0.495,0.495 0.495,0.495 1,1 0.33,-1.65 0.66,-3.3 1,-5 2.97,0 5.94,0 9,0 0.0745,6.79522 0.12879,13.5902 0.1648,20.38574 0.015,2.30831 0.0354,4.6166 0.0615,6.92481 0.0367,3.33145 0.0535,6.66252 0.0666,9.99414 0.0155,1.0202 0.031,2.0404 0.0469,3.09152 0.002,7.00007 -0.29953,14.85031 -4.88928,20.5166 -6.81855,6.5982 -15.21315,7.59133 -24.34343,7.58597 -6.59018,-0.23217 -12.45866,-2.02954 -18.10717,-5.49878 -0.66,-0.99 -1.32,-1.98 -2,-3 1.32,-1.98 2.64,-3.96 4,-6 0.66,0.26812 1.32,0.53625 2,0.8125 0.99,0.39188 1.98,0.78375 3,1.1875 0.58137,0.26426 1.16273,0.52852 1.76172,0.80078 6.82457,2.92086 13.55059,3.27061 20.67578,1.07422 2.87359,-1.24813 3.60323,-1.92973 5.5625,-4.5625 1.21548,-4.02628 1.21668,-7.1233 1,-11.3125 -0.9075,0.63937 -1.815,1.27875 -2.75,1.9375 -6.50696,4.12941 -13.7225,3.77467 -21.25,3.0625 -6.95213,-2.14683 -11.41787,-6.7988 -15,-13 -2.885,-6.0575 -3.11118,-12.8366 -1.38281,-19.3125 2.92673,-6.63049 8.59854,-11.72621 15.19531,-14.625 9.36831,-2.91499 17.01776,-1.1896 25.1875,3.9375 z"
     transform="matrix(1.4379142,0,0,1.4379142,-171.42736,-159.3241)" />
  <path
     d="m 204.08206,88.74654 c 2.94816,2.41381 5.68514,5.01225 8.32666,7.75537 -1.49076,3.28269 -3.3862,5.93078 -5.625,8.75 l -1.91406,2.42188 -1.46094,1.82812 c -2.89239,-1.32206 -4.47431,-2.44338 -6.875,-4.6875 C 183.90248,93.66275 169.07756,91.6409 152.94827,92.3066 c -5.04185,0.38776 -9.13251,1.79351 -13.53955,4.19531 -0.83145,0.4241 -1.66289,0.8482 -2.51953,1.28516 -11.81651,6.51632 -19.06436,15.11924 -25.48047,26.71484 -3.43932,-1.30731 -6.61301,-2.81036 -9.8125,-4.625 l -2.394528,-1.35156 c -0.59168,-0.33774 -1.18336,-0.67547 -1.79297,-1.02344 l 1,-5 c 2.704188,-6.48083 5.701308,-10.0936 9.437498,-13.1875 2.34085,-1.93213 4.59691,-3.8466 6.75391,-5.98437 7.04246,-6.91139 14.82512,-10.995499 23.80859,-14.828129 0.89074,-0.384141 1.78148,-0.768281 2.69922,-1.164062 20.11041,-6.930158 46.20791,-1.062 62.97412,11.408691 z"
     fill="#1f5684"
     id="path7"
     sodipodi:nodetypes="ccccccccccccccccccc" />
  <path
     d="m 391.73892,96.07254 c 7.13348,7.33163 7.25,12.51945 7.25,23.3125 h -40 l 1.87258,5.00554 c 0,0 3.69492,4.61321 4.50242,4.93196 2.625,1.0625 2.625,1.0625 4.625,2.0625 8.7881,0.90967 8.7881,0.90967 16.8125,-2 0.72188,-0.66 1.44375,-1.32 2.1875,-2 2.88438,1.293 4.87219,2.65941 7,5 -1.5134,4.23752 -4.18991,5.80187 -8,8 -7.56398,2.94564 -16.1766,3.52633 -23.8125,0.4375 -6.93678,-3.64691 -12.72256,-8.3902 -15.55859,-15.85547 -1.99408,-8.18687 -1.54158,-15.99951 2.6875,-23.35547 10.52493,-13.91929 26.56193,-14.051218 40.43359,-5.53906 z"
     fill="#b9bab9"
     id="path8"
     clip-path="url(#clipPath52)"
     inkscape:path-effect="#path-effect52"
     inkscape:original-d="m 391.73892,96.07254 c 7.13348,7.33163 7.25,12.51945 7.25,23.3125 h -40 l 1.87258,5.00554 c 0,0 3.69492,4.61321 4.50242,4.93196 2.625,1.0625 2.625,1.0625 4.625,2.0625 8.7881,0.90967 8.7881,0.90967 16.8125,-2 0.72188,-0.66 1.44375,-1.32 2.1875,-2 2.88438,1.293 4.87219,2.65941 7,5 -1.5134,4.23752 -4.18991,5.80187 -8,8 -7.56398,2.94564 -16.1766,3.52633 -23.8125,0.4375 -6.93678,-3.64691 -12.72256,-8.3902 -15.55859,-15.85547 -1.99408,-8.18687 -1.54158,-15.99951 2.6875,-23.35547 10.52493,-13.91929 26.56193,-14.051218 40.43359,-5.53906 z"
     sodipodi:nodetypes="cccccccccccccc"
     transform="matrix(1.0364888,0,0,1.0364888,-28.235906,-54.892362)" />
  <path
     d="m 785.09052,215.18973 c 6.39734,4.02795 10.08817,9.95425 11.89844,17.19531 0,2.97 0,5.94 0,9 -13.2,0 -26.4,0 -40,0 3.65688,7.86997 3.65688,7.86997 10,12 5.31394,1.77132 9.58483,1.5189 14.75,-0.375 1.0725,-0.53625 2.145,-1.0725 3.25,-1.625 1.20656,-0.58781 1.20656,-0.58781 2.4375,-1.1875 0.51562,-0.26812 1.03125,-0.53625 1.5625,-0.8125 2.0625,2.25 2.0625,2.25 4,5 -0.13672,2.03516 -0.13672,2.03516 -1,4 -1.74219,1.23047 -1.74219,1.23047 -3.875,2.1875 -0.69867,0.32356 -1.39735,0.64711 -2.11719,0.98047 -7.04332,2.91873 -15.68364,3.08762 -23.00781,0.96094 -7.01046,-3.25944 -12.74209,-8.54621 -15.52735,-15.91797 -1.56867,-7.33776 -1.8634,-15.88842 2.13282,-22.46875 8.97509,-11.21259 22.2356,-15.78317 35.49609,-8.9375 z"
     fill="#f5f5f5"
     id="path9"
     clip-path="url(#clipPath55)"
     inkscape:path-effect="#path-effect55"
     inkscape:original-d="m 785.09052,215.18973 c 6.39734,4.02795 10.08817,9.95425 11.89844,17.19531 0,2.97 0,5.94 0,9 -13.2,0 -26.4,0 -40,0 3.65688,7.86997 3.65688,7.86997 10,12 5.31394,1.77132 9.58483,1.5189 14.75,-0.375 1.0725,-0.53625 2.145,-1.0725 3.25,-1.625 1.20656,-0.58781 1.20656,-0.58781 2.4375,-1.1875 0.51562,-0.26812 1.03125,-0.53625 1.5625,-0.8125 2.0625,2.25 2.0625,2.25 4,5 -0.13672,2.03516 -0.13672,2.03516 -1,4 -1.74219,1.23047 -1.74219,1.23047 -3.875,2.1875 -0.69867,0.32356 -1.39735,0.64711 -2.11719,0.98047 -7.04332,2.91873 -15.68364,3.08762 -23.00781,0.96094 -7.01046,-3.25944 -12.74209,-8.54621 -15.52735,-15.91797 -1.56867,-7.33776 -1.8634,-15.88842 2.13282,-22.46875 8.97509,-11.21259 22.2356,-15.78317 35.49609,-8.9375 z"
     transform="matrix(1.4379142,0,0,1.4379142,-171.42736,-159.3241)" />
  <path
     d="m 586.67642,214.51004 c 5.12942,2.99926 7.42907,6.22471 9.3125,11.875 0.0852,2.80426 0.11589,5.58296 0.0977,8.38672 -0.001,0.81701 -0.003,1.63402 -0.004,2.47578 -0.006,2.60837 -0.0181,5.21666 -0.0309,7.825 -0.005,1.76888 -0.01,3.53776 -0.0137,5.30664 -0.011,4.33532 -0.0283,8.67058 -0.0488,13.00586 -2.97,0 -5.94,0 -9,0 -0.66,-1.32 -1.32,-2.64 -2,-4 -1.05188,0.66 -2.10375,1.32 -3.1875,2 -6.62018,3.31599 -14.27846,3.09234 -21.25,0.9375 -4.21969,-3.1905 -7.86362,-6.0348 -9.14844,-11.37109 -0.30186,-4.72195 0.28472,-7.84022 3.27344,-11.56641 3.09663,-3.32868 6.45219,-4.84233 10.99145,-5.22705 1.40609,0.0157 1.40609,0.0157 2.84058,0.0317 1.53237,0.01 1.53237,0.01 3.0957,0.0195 1.0551,0.0168 2.1102,0.0335 3.19727,0.0508 1.07443,0.009 2.14887,0.018 3.25586,0.0273 2.64411,0.0235 5.28776,0.0564 7.93164,0.0977 -0.62954,-6.10152 -0.62954,-6.10152 -4,-11 -3.42992,-1.14331 -6.19864,-1.20382 -9.8125,-1.25 -1.20269,-0.0258 -2.40539,-0.0516 -3.64453,-0.0781 -3.84248,0.35587 -6.15643,1.56964 -9.54297,3.32813 -3,-1 -3,-1 -5,-4 0.13281,-2.05078 0.13281,-2.05078 1,-4 1.74219,-1.23047 1.74219,-1.23047 3.875,-2.1875 1.04801,-0.48533 1.04801,-0.48533 2.11719,-0.98047 7.86622,-3.25974 17.93774,-3.31951 25.69531,0.29297 z"
     fill="#f4f4f4"
     id="path10"
     clip-path="url(#clipPath54)"
     inkscape:path-effect="#path-effect54"
     inkscape:original-d="m 586.67642,214.51004 c 5.12942,2.99926 7.42907,6.22471 9.3125,11.875 0.0852,2.80426 0.11589,5.58296 0.0977,8.38672 -0.001,0.81701 -0.003,1.63402 -0.004,2.47578 -0.006,2.60837 -0.0181,5.21666 -0.0309,7.825 -0.005,1.76888 -0.01,3.53776 -0.0137,5.30664 -0.011,4.33532 -0.0283,8.67058 -0.0488,13.00586 -2.97,0 -5.94,0 -9,0 -0.66,-1.32 -1.32,-2.64 -2,-4 -1.05188,0.66 -2.10375,1.32 -3.1875,2 -6.62018,3.31599 -14.27846,3.09234 -21.25,0.9375 -4.21969,-3.1905 -7.86362,-6.0348 -9.14844,-11.37109 -0.30186,-4.72195 0.28472,-7.84022 3.27344,-11.56641 3.09663,-3.32868 6.45219,-4.84233 10.99145,-5.22705 1.40609,0.0157 1.40609,0.0157 2.84058,0.0317 1.53237,0.01 1.53237,0.01 3.0957,0.0195 1.0551,0.0168 2.1102,0.0335 3.19727,0.0508 1.07443,0.009 2.14887,0.018 3.25586,0.0273 2.64411,0.0235 5.28776,0.0564 7.93164,0.0977 -0.62954,-6.10152 -0.62954,-6.10152 -4,-11 -3.42992,-1.14331 -6.19864,-1.20382 -9.8125,-1.25 -1.20269,-0.0258 -2.40539,-0.0516 -3.64453,-0.0781 -3.84248,0.35587 -6.15643,1.56964 -9.54297,3.32813 -3,-1 -3,-1 -5,-4 0.13281,-2.05078 0.13281,-2.05078 1,-4 1.74219,-1.23047 1.74219,-1.23047 3.875,-2.1875 1.04801,-0.48533 1.04801,-0.48533 2.11719,-0.98047 7.86622,-3.25974 17.93774,-3.31951 25.69531,0.29297 z"
     transform="matrix(1.4379142,0,0,1.4379142,-171.42736,-159.3241)" />
  <path
     d="m 448.53746,39.827202 c 4.10451,0 8.20901,0 12.43786,0 0.003,1.04041 0.009,2.080819 0.0125,3.152747 0.0226,3.873535 0.079,7.745977 0.14526,11.618995 0.0239,1.67372 0.0389,3.34762 0.0445,5.021502 0.01,2.41178 0.0522,4.821133 0.10092,7.232394 -0.003,0.744104 -0.009,1.4882 -0.0125,2.25485 0.11785,4.081457 0.62101,5.80962 3.25262,9.000017 4.21186,3.373538 6.595,3.539621 12.00339,3.179063 4.34937,-1.364516 5.88272,-2.606076 8.42553,-6.413285 3.08259,-6.461683 2.6411,-13.515857 2.71673,-20.535434 0.0293,-1.410363 0.0601,-2.820683 0.093,-4.230976 0.0729,-3.426685 0.12778,-6.852656 0.166,-10.279873 3.76245,0 7.5249,0 11.40137,0 0,17.102077 0,34.204137 0,51.824452 -3.76244,0 -7.5249,0 -11.40137,0 -0.34205,-1.710208 -0.68408,-3.420415 -1.0365,-5.182447 -0.74822,0.641323 -1.49642,1.282655 -2.26731,1.943407 -6.14384,4.642016 -11.99904,5.107688 -19.49896,4.275526 -6.32911,-1.809871 -11.05762,-5.836652 -14.51083,-11.40137 -1.98873,-4.898876 -2.35103,-9.314351 -2.27543,-14.535153 0.003,-0.773395 0.006,-1.546798 0.01,-2.343644 0.0112,-2.449881 0.0375,-4.899366 0.064,-7.349135 0.01,-1.669451 0.0198,-3.338894 0.0282,-5.008347 0.0228,-4.074579 0.0585,-8.148864 0.10133,-12.223289 z"
     fill="#b8b8b8"
     id="path11"
     style="stroke-width:1.03649" />
  <path
     d="m 436.09959,42.936672 c -0.581,3.486002 -1.47017,6.209732 -3.10945,9.328398 -0.62798,-0.22446 -1.25594,-0.448922 -1.90294,-0.680198 -7.36901,-2.448769 -14.7839,-4.369875 -22.06588,-0.874538 -0.64132,0.513067 -1.28265,1.026134 -1.94341,1.554736 0.19517,2.534006 0.19517,2.534006 1.0365,5.182453 3.54295,2.405376 7.50415,2.747658 11.66048,3.433363 6.20574,1.12682 11.55817,2.624559 16.3247,6.93152 2.81553,4.223296 2.59094,7.487629 2.07299,12.437867 -1.66942,5.425583 -4.52522,7.558373 -9.19074,10.385134 -8.90728,4.094728 -19.67631,2.484904 -28.77066,-0.07291 -2.58825,-1.034447 -4.46683,-2.324186 -6.60762,-4.093321 0.56721,-3.497769 1.0934,-5.267802 3.10947,-8.291908 0.56783,0.224462 1.13568,0.448926 1.72072,0.680199 7.95109,2.792559 15.83758,3.208956 24.1915,2.429263 1.02613,-0.684081 2.05224,-1.368171 3.10946,-2.072965 0.25944,-2.678095 0.25944,-2.678095 0,-5.182456 -5.74949,-1.829972 -11.44291,-3.345553 -17.36118,-4.534645 -5.63263,-1.255377 -8.78872,-2.632767 -12.69699,-6.866736 -1.97337,-3.946732 -1.77991,-8.15859 -1.03649,-12.437865 2.62941,-4.920857 6.34565,-8.304181 11.53095,-10.364887 10.28491,-2.70286 20.48412,-1.612764 29.92859,3.109471 z"
     fill="#b8b8b8"
     id="path12"
     style="stroke-width:1.03649" />
  <path
     d="m 536.01055,146.0674 c 4.74513,0 9.49025,0 14.37915,0 0.47451,2.84706 0.94902,5.69413 1.43791,8.62747 1.00834,-0.88969 2.01668,-1.77941 3.05558,-2.69608 8.76255,-6.47668 17.97417,-7.13645 28.57854,-5.93139 8.49897,2.52671 13.83111,7.08644 18.69288,14.37914 2.52937,7.23485 3.27106,13.82867 3.15668,21.42829 -0.004,1.03898 -0.008,2.07796 -0.0135,3.14844 -0.0159,3.28137 -0.0521,6.56216 -0.0886,9.84334 -0.0143,2.24019 -0.0276,4.48037 -0.0392,6.72057 -0.0315,5.45888 -0.081,10.91729 -0.14033,16.37593 -4.74513,0 -9.49025,0 -14.37916,0 -0.0209,-1.39979 -0.042,-2.79957 -0.0635,-4.24176 -0.0835,-5.21276 -0.19466,-10.42461 -0.31383,-15.63663 -0.0478,-2.25221 -0.0879,-4.50459 -0.12078,-6.75708 -0.0486,-3.24528 -0.12372,-6.48903 -0.20397,-9.73365 -0.008,-1.00083 -0.0184,-2.00167 -0.0279,-3.0328 -0.18722,-6.24436 -1.22143,-10.2527 -5.02173,-15.23883 -6.10973,-3.77365 -13.1608,-3.69954 -20.13081,-2.87582 -5.37345,2.33628 -8.40838,5.11352 -11.5033,10.0654 -1.67378,5.02131 -1.74159,9.1904 -1.8929,14.48585 -0.0299,0.9833 -0.0599,1.96659 -0.0906,2.9797 -0.094,3.13501 -0.1787,6.27018 -0.2633,9.40547 -0.0622,2.12787 -0.12492,4.25572 -0.18817,6.38355 -0.1538,5.21133 -0.29951,10.42284 -0.44093,15.63451 -4.74511,0 -9.49023,0 -14.37914,0 0,-24.2001 0,-48.40019 0,-73.33362 z"
     fill="#f2f2f2"
     id="path13"
     style="stroke-width:1.43791" />
  <path
     d="m 764.63893,146.0674 c 4.74513,0 9.49025,0 14.37915,0 0.021,1.44334 0.042,2.88668 0.0635,4.37376 0.0836,5.37352 0.19464,10.74616 0.31385,16.11897 0.0478,2.32195 0.088,4.64407 0.12078,6.96631 0.0486,3.3452 0.12372,6.68889 0.20397,10.03344 0.008,1.0323 0.0184,2.06457 0.0279,3.12814 0.18418,6.33018 1.11498,10.43246 5.0217,15.45803 6.42633,4.28421 12.59718,3.57175 20.13081,2.87583 5.1917,-1.94689 6.64355,-3.40312 9.48021,-8.1339 2.2929,-5.44841 2.6371,-9.50525 2.75891,-15.40071 0.0259,-0.9772 0.0516,-1.95438 0.0782,-2.96117 0.0773,-3.0907 0.12638,-6.18109 0.17452,-9.27234 0.0478,-2.10823 0.0973,-4.21642 0.14885,-6.32458 0.12159,-5.14098 0.21789,-10.28209 0.3005,-15.42387 4.74512,0 9.49024,0 14.37914,0 0,23.25107 0,46.50215 0,70.4578 -4.27061,0 -8.5412,0 -12.94123,0 0,-2.84707 0,-5.69414 0,-8.62748 -0.94903,0 -1.89804,0 -2.87582,0 -0.47452,1.42353 -0.94903,2.84706 -1.43792,4.31374 -9.5869,6.45271 -18.81066,7.4005 -30.1962,5.75165 -8.61497,-3.32078 -14.63058,-9.2392 -18.82138,-17.44701 -1.71811,-5.40819 -1.6663,-10.53675 -1.59026,-16.14738 0.004,-1.13879 0.008,-2.27762 0.0135,-3.45093 0.016,-3.61862 0.0521,-7.23673 0.0888,-10.85519 0.0143,-2.4611 0.0276,-4.92223 0.0392,-7.38338 0.0316,-6.01676 0.0813,-12.03316 0.14048,-18.04973 z"
     fill="#f4f4f4"
     id="path14"
     style="stroke-width:1.43791" />
  <path
     d="m 386.95613,150.56088 c 0.78775,0.41519 1.57552,0.83039 2.38716,1.25817 -0.71654,5.30239 -1.58269,8.05937 -5.75165,11.50331 -1.57183,-0.71176 -3.14365,-1.42352 -4.76309,-2.15686 -8.88894,-3.32148 -18.21488,-3.77464 -27.14063,-0.44935 -2.89394,2.44695 -2.89394,2.44695 -3.50493,6.20101 0.55623,3.79901 0.55623,3.79901 3.74644,5.80221 6.5877,3.19583 13.45299,4.20806 20.61667,5.51855 8.15679,1.63136 14.96833,3.78486 20.21224,10.69731 1.97087,6.89802 1.43528,11.89172 -1.25817,18.51314 -4.44363,7.08749 -11.79368,9.41326 -19.41185,11.95265 -14.16706,0.89296 -28.08052,0.93116 -40.2616,-7.18957 0.78687,-4.85242 1.51685,-7.30797 4.31374,-11.50331 1.8239,0.62278 1.8239,0.62278 3.68466,1.25818 1.63113,0.53383 3.26226,1.06763 4.94283,1.61764 1.51249,0.53383 3.025,1.06766 4.58335,1.61767 7.93271,1.82061 16.77722,2.88141 24.58496,0.0786 2.98394,-1.64775 2.98394,-1.64775 3.54424,-6.18976 0.11864,-1.36422 0.23725,-2.72845 0.35949,-4.13401 -5.64034,-3.44684 -10.42426,-4.73166 -16.98537,-5.66179 -9.19454,-1.38374 -17.4984,-3.61762 -24.71416,-9.70592 -2.30834,-5.33803 -3.2096,-10.45058 -2.87583,-16.26641 3.61785,-7.37485 8.74968,-12.3204 16.12037,-15.94061 12.34005,-4.04423 26.005,-2.23721 37.57113,3.17912 z"
     fill="#f5f5f5"
     id="path15"
     style="stroke-width:1.43791" />
  <path
     d="m 709.99819,130.25034 c 4.74512,0 9.49023,0 14.37914,0 0,5.69414 0,11.38829 0,17.25497 6.64316,0 13.28633,0 20.13079,0 0,3.7961 0,7.59218 0,11.50332 -6.64316,0 -13.28632,0 -20.13079,0 0.16349,6.5912 0.34576,13.18097 0.53922,19.77132 0.0444,1.8721 0.089,3.74419 0.13475,5.67301 0.0557,1.79797 0.11104,3.59591 0.1685,5.44835 0.0677,2.48493 0.0677,2.48493 0.1369,5.02008 0.43932,4.16717 1.03424,6.63662 3.33431,10.10049 5.45485,2.72744 11.56652,1.75029 17.25496,0 1.42355,3.32158 2.84708,6.64318 4.31375,10.06541 -6.01497,4.9779 -11.62003,4.9595 -19.09167,4.71816 -5.71314,-0.59018 -9.04596,-1.6971 -13.98036,-4.71816 -6.50987,-8.05169 -7.37438,-13.94093 -7.33001,-24.06261 0.004,-1.86282 0.008,-3.72564 0.0143,-5.64494 0.012,-1.96027 0.0242,-3.92055 0.0364,-5.88084 0.007,-1.98275 0.0143,-3.96549 0.0197,-5.94824 0.0171,-4.84741 0.0406,-9.6947 0.0702,-14.54203 -4.27059,0 -8.5412,0 -12.94121,0 0,-3.7961 0,-7.5922 0,-11.50332 4.27059,0 8.5412,0 12.94121,0 0,-5.69414 0,-11.38829 0,-17.25497 z"
     fill="#f4f4f4"
     id="path16"
     style="stroke-width:1.43791" />
  <path
     d="m 894.05122,146.0674 c 0,4.27061 0,8.5412 0,12.94123 -1.98701,0.35587 -3.97402,0.71176 -6.02126,1.07843 -6.02899,1.37237 -9.82554,2.88706 -14.10954,7.54906 -5.6329,9.71569 -5.10799,19.82639 -5.30231,30.82528 -0.0493,1.87488 -0.0982,3.74975 -0.14885,5.68144 -0.11812,4.60663 -0.2177,9.21289 -0.30049,13.82027 -4.27061,0 -8.5412,0 -12.94123,0 0,-23.25107 0,-46.50214 0,-70.4578 4.27059,0 8.5412,0 12.94123,0 0.47451,2.84707 0.94901,5.69413 1.43791,8.62749 1.24559,-1.12696 2.49118,-2.25393 3.77452,-3.41505 6.31802,-5.24769 12.45045,-7.13385 20.67002,-6.65035 z"
     fill="#fcfcfc"
     id="path20"
     style="fill:#f5f5f5;fill-opacity:1;stroke-width:1.43791" />
  <path
     d="m 408.03619,146.0674 c 4.7451,0 9.49022,0 14.37913,0 0,24.20009 0,48.40019 0,73.33362 -4.74511,0 -9.49022,0 -14.37913,0 0,-24.2001 0,-48.40019 0,-73.33362 z"
     fill="#eff0ef"
     id="path21"
     style="fill:#f4f5f4;fill-opacity:1;stroke-width:1.43791" />
  <path
     d="m 412.17019,116.92716 c 1.00834,0.007 2.01667,0.0148 3.05556,0.0224 1.00833,-0.007 2.01667,-0.0148 3.05557,-0.0224 2.69609,0.38195 2.69609,0.38195 5.57192,3.25778 0.79117,8.70283 0.79117,8.70283 -1.61766,12.85136 -3.97554,2.25281 -6.84,2.08822 -11.32357,1.52777 -2.69609,-1.52777 -2.69609,-1.52777 -4.31376,-4.31373 -0.44933,-5.12257 -0.44933,-5.12257 0,-10.0654 2.87585,-2.87583 2.87585,-2.87583 5.57194,-3.25778 z"
     fill="#f4f4f4"
     id="path28"
     style="stroke-width:1.43791" />
  <path
     d="m 190.40872,192.50191 c 0.33,1.32 0.66,2.64 1,4 0.61488,-0.30035 1.22977,-0.6007 1.86328,-0.91016 0.80824,-0.38027 1.61649,-0.76054 2.44922,-1.15234 0.80051,-0.38285 1.60102,-0.7657 2.42578,-1.16016 2.26172,-0.77734 2.26172,-0.77734 5.26172,0.22266 -4.95,2.31 -9.9,4.62 -15,7 -0.33,-0.66 -0.66,-1.32 -1,-2 0.93447,-2.03145 1.93225,-4.03534 3,-6 z"
     fill="#295071"
     id="path41" />
</svg>
